<svg id="Layer_1" data-name="Layer 1" xmlns="http://www.w3.org/2000/svg" xmlns:xlink="http://www.w3.org/1999/xlink" width="500" height="500" viewBox="0 0 500 500"><defs><style>.cls-1{fill:none;}.cls-2{opacity:0.3;}.cls-3{clip-path:url(#clip-path);}.cls-4{fill:#f05662;}.cls-5{fill:#00b5af;}.cls-6{fill:#fff;}</style><clipPath id="clip-path"><rect class="cls-1" width="500" height="500"/></clipPath></defs><title>ellemichelle-logo-pattern</title><g class="cls-2"><g class="cls-3"><path class="cls-4" d="M250,145.59c3.61,3.86,6.85,7.13,9.82,10.64a6.05,6.05,0,0,1,1.23,4c-1.24,15.39-2.65,30.77-4,46.16-1.24,14.65-2.37,29.31-3.65,44q-1.65,18.76-3.76,37.47c-1.2-14.6-2.32-29.21-3.63-43.8-1.74-19.47-3.64-38.93-5.48-58.39-.79-8.31-1.72-16.61-2.3-24.94A7.47,7.47,0,0,1,240.1,156C243,152.6,246.2,149.5,250,145.59Z"/><path class="cls-4" d="M232.12,164.65c3.56,41,7.15,82.2,10.74,123.42l-.3.08c-2.46-9.26-4.88-18.52-7.39-27.77-5-18.31-10-36.6-14.94-54.91-1.84-6.82-3.46-13.71-5.32-20.53a4.91,4.91,0,0,1,1.65-5.57C221.84,174.59,226.92,169.6,232.12,164.65Z"/><path class="cls-4" d="M267.72,163.61c6,6.16,11.51,11.54,16.6,17.29.95,1.09.6,3.79.14,5.57-3.53,13.7-7.2,27.37-10.91,41-3.28,12.1-6.7,24.16-10,36.26-2,7.4-3.89,14.85-6.53,22.19C260.56,245.6,264.08,205.24,267.72,163.61Z"/><path class="cls-4" d="M208.44,187.26c9.2,34.31,18.14,67.64,27.09,101l-.55.25c-2-4.11-3.95-8.21-5.87-12.33q-16.58-35.55-33.17-71.09c-1.16-2.46-1.23-4.09,1-6.1C200.77,195.53,204.19,191.64,208.44,187.26Z"/><path class="cls-4" d="M264.73,286.22c8.73-32.58,17.46-65.15,26.45-98.68,4.84,4.86,9.19,9.15,13.42,13.57.38.39.2,1.65-.11,2.33Q290.8,232.77,277,262c-3.47,7.42-6.79,14.91-10.21,22.35a17.82,17.82,0,0,1-1.36,2.13Z"/><path class="cls-4" d="M310.61,206.28c3.52,3.77,6.46,7.16,9.68,10.25,1.89,1.8,1.7,3.31.41,5.15Q309.35,237.79,298,253.91c-8.17,11.69-16.29,23.41-24.46,35.1a2.52,2.52,0,0,1-2,1C284.45,262.38,297.32,234.8,310.61,206.28Z"/><path class="cls-4" d="M228,291.34,177.22,218.9l12.15-12,39.16,83.91Z"/><path class="cls-4" d="M223.31,297.5Q210.19,284.27,197.05,271c-11-11-22-22-33.05-33-2.25-2.22-2.8-3.75-.16-6.18s5-5.7,7.88-9c17.92,25.57,35,49.93,52.05,74.28Z"/><path class="cls-4" d="M327.3,223.81l10.62,11.09-60.5,60.2Z"/><path class="cls-4" d="M231.84,306.56c9-8.59,27.4-8.59,36.06.12-4.3,4-8.64,8-12.9,12-5.25,5-5.19,5-10.54-.2C240.37,314.52,236.18,310.66,231.84,306.56Z"/><path class="cls-4" d="M342.45,50.59c3.61,3.86,6.85,7.13,9.82,10.64a6.05,6.05,0,0,1,1.23,4c-1.24,15.39-2.65,30.77-4,46.16-1.24,14.65-2.37,29.31-3.65,44q-1.65,18.76-3.76,37.47c-1.2-14.6-2.32-29.21-3.63-43.8-1.74-19.47-3.64-38.93-5.48-58.39-.79-8.31-1.72-16.61-2.3-24.94A7.47,7.47,0,0,1,332.6,61C335.48,57.6,338.7,54.5,342.45,50.59Z"/><path class="cls-4" d="M324.62,69.65c3.56,41,7.15,82.2,10.74,123.42l-.3.08c-2.46-9.26-4.88-18.52-7.39-27.77-5-18.31-10-36.6-14.94-54.91-1.84-6.82-3.46-13.71-5.32-20.53a4.91,4.91,0,0,1,1.65-5.57C314.34,79.59,319.42,74.6,324.62,69.65Z"/><path class="cls-4" d="M360.22,68.61c6,6.16,11.51,11.54,16.6,17.29.95,1.09.6,3.79.14,5.57-3.53,13.7-7.2,27.37-10.91,41-3.28,12.1-6.7,24.16-10,36.26-2,7.4-3.89,14.85-6.53,22.19C353.06,150.6,356.58,110.24,360.22,68.61Z"/><path class="cls-4" d="M300.94,92.26c9.2,34.31,18.14,67.64,27.09,101l-.55.25c-2-4.11-4-8.21-5.87-12.33Q305,145.6,288.44,110.06c-1.16-2.46-1.23-4.09,1-6.1C293.27,100.53,296.69,96.64,300.94,92.26Z"/><path class="cls-4" d="M357.23,191.22c8.73-32.58,17.46-65.15,26.45-98.68,4.84,4.86,9.19,9.15,13.42,13.57.38.39.2,1.65-.11,2.33Q383.3,137.76,369.54,167c-3.47,7.42-6.79,14.91-10.21,22.35a17.82,17.82,0,0,1-1.36,2.13Z"/><path class="cls-4" d="M403.11,111.28c3.52,3.77,6.46,7.16,9.68,10.25,1.89,1.8,1.7,3.31.41,5.15q-11.35,16.11-22.69,32.23c-8.17,11.69-16.29,23.41-24.46,35.1a2.52,2.52,0,0,1-2,1C377,167.38,389.82,139.8,403.11,111.28Z"/><path class="cls-4" d="M320.45,196.34,269.72,123.9l12.15-12L321,195.84Z"/><path class="cls-4" d="M315.81,202.5Q302.69,189.27,289.55,176c-11-11-22-22-33.05-32.95-2.25-2.22-2.8-3.75-.16-6.18s5-5.7,7.88-9c17.92,25.57,35,49.93,52,74.28Z"/><path class="cls-4" d="M419.8,128.81l10.62,11.09-60.5,60.2Z"/><path class="cls-4" d="M324.34,211.56c9-8.59,27.4-8.59,36.06.12-4.3,4-8.64,8-12.9,12-5.25,5-5.19,5-10.54-.2C332.87,219.52,328.68,215.66,324.34,211.56Z"/><path class="cls-4" d="M157.45,50.59c3.61,3.86,6.85,7.13,9.82,10.64a6.05,6.05,0,0,1,1.23,4c-1.24,15.39-2.65,30.77-4,46.16-1.24,14.65-2.37,29.31-3.65,44q-1.65,18.76-3.76,37.47c-1.2-14.6-2.32-29.21-3.63-43.8-1.74-19.47-3.64-38.93-5.48-58.39-.79-8.31-1.72-16.61-2.3-24.94A7.47,7.47,0,0,1,147.6,61C150.48,57.6,153.7,54.5,157.45,50.59Z"/><path class="cls-4" d="M139.62,69.65c3.56,41,7.15,82.2,10.74,123.42l-.3.08c-2.46-9.26-4.88-18.52-7.39-27.77-5-18.31-10-36.6-14.94-54.91-1.84-6.82-3.46-13.71-5.32-20.53a4.91,4.91,0,0,1,1.65-5.57C129.34,79.59,134.42,74.6,139.62,69.65Z"/><path class="cls-4" d="M175.22,68.61c6,6.16,11.51,11.54,16.6,17.29,1,1.09.6,3.79.14,5.57-3.53,13.7-7.2,27.37-10.91,41-3.28,12.1-6.7,24.16-10,36.26-2,7.4-3.89,14.85-6.53,22.19C168.06,150.6,171.58,110.24,175.22,68.61Z"/><path class="cls-4" d="M115.94,92.26c9.2,34.31,18.14,67.64,27.09,101l-.55.25c-2-4.11-3.95-8.21-5.87-12.33Q120,145.6,103.44,110.06c-1.16-2.46-1.23-4.09,1-6.1C108.27,100.53,111.69,96.64,115.94,92.26Z"/><path class="cls-4" d="M172.23,191.22c8.73-32.58,17.46-65.15,26.45-98.68,4.84,4.86,9.19,9.15,13.42,13.57.38.39.2,1.65-.11,2.33Q198.3,137.76,184.54,167c-3.47,7.42-6.79,14.91-10.21,22.35a17.82,17.82,0,0,1-1.36,2.13Z"/><path class="cls-4" d="M218.11,111.28c3.52,3.77,6.46,7.16,9.68,10.25,1.89,1.8,1.7,3.31.41,5.15q-11.35,16.11-22.69,32.23c-8.17,11.69-16.29,23.41-24.46,35.1a2.52,2.52,0,0,1-2,1C192,167.38,204.82,139.8,218.11,111.28Z"/><path class="cls-4" d="M135.45,196.34,84.72,123.9l12.15-12L136,195.84Z"/><path class="cls-4" d="M130.81,202.5Q117.69,189.27,104.55,176c-11-11-22-22-33-32.95-2.25-2.22-2.8-3.75-.16-6.18s5-5.7,7.88-9c17.92,25.57,35,49.93,52.05,74.28Z"/><path class="cls-4" d="M234.8,128.81l10.62,11.09-60.5,60.2Z"/><path class="cls-4" d="M139.34,211.56c9-8.59,27.4-8.59,36.06.12-4.3,4-8.64,8-12.9,12-5.25,5-5.19,5-10.54-.2C147.87,219.52,143.68,215.66,139.34,211.56Z"/><path class="cls-4" d="M250-43.41c3.61,3.86,6.85,7.13,9.82,10.64a6.05,6.05,0,0,1,1.23,4c-1.24,15.39-2.65,30.77-4,46.16-1.24,14.65-2.37,29.31-3.65,44q-1.65,18.77-3.76,37.47c-1.2-14.6-2.32-29.21-3.63-43.8-1.74-19.47-3.64-38.93-5.48-58.39-.79-8.31-1.72-16.61-2.3-24.94A7.47,7.47,0,0,1,240.1-33C243-36.4,246.2-39.5,250-43.41Z"/><path class="cls-4" d="M232.12-24.35c3.56,41,7.15,82.2,10.74,123.42l-.3.08c-2.46-9.26-4.88-18.52-7.39-27.77-5-18.31-10-36.6-14.94-54.91-1.84-6.82-3.46-13.71-5.32-20.53a4.91,4.91,0,0,1,1.65-5.57C221.84-14.41,226.92-19.4,232.12-24.35Z"/><path class="cls-4" d="M267.72-25.39c6,6.16,11.51,11.54,16.6,17.29.95,1.09.6,3.79.14,5.57-3.53,13.7-7.2,27.37-10.91,41-3.28,12.1-6.7,24.16-10,36.26-2,7.4-3.89,14.85-6.53,22.19C260.56,56.6,264.08,16.24,267.72-25.39Z"/><path class="cls-4" d="M208.44-1.74c9.2,34.31,18.14,67.64,27.09,101l-.55.25c-2-4.11-3.95-8.21-5.87-12.33Q212.54,51.6,195.94,16.06c-1.16-2.46-1.23-4.09,1-6.1C200.77,6.53,204.19,2.64,208.44-1.74Z"/><path class="cls-4" d="M264.73,97.22c8.73-32.58,17.46-65.15,26.45-98.68C296,3.4,300.37,7.69,304.6,12.11c.38.39.2,1.65-.11,2.33Q290.8,43.77,277,73c-3.47,7.42-6.79,14.91-10.21,22.35a17.82,17.82,0,0,1-1.36,2.13Z"/><path class="cls-4" d="M310.61,17.28c3.52,3.77,6.46,7.16,9.68,10.25,1.89,1.8,1.7,3.31.41,5.15Q309.35,48.79,298,64.91c-8.17,11.69-16.29,23.41-24.46,35.1a2.52,2.52,0,0,1-2,1C284.45,73.38,297.32,45.8,310.61,17.28Z"/><path class="cls-4" d="M228,102.34,177.22,29.9l12.15-12,39.16,83.91Z"/><path class="cls-4" d="M223.31,108.5Q210.19,95.27,197.05,82c-11-11-22-22-33.05-32.95-2.25-2.22-2.8-3.75-.16-6.18s5-5.7,7.88-9c17.92,25.57,35,49.93,52.05,74.28Z"/><path class="cls-4" d="M327.3,34.81,337.92,45.9l-60.5,60.2Z"/><path class="cls-4" d="M231.84,117.56c9-8.59,27.4-8.59,36.06.12-4.3,4-8.64,8-12.9,12-5.25,5-5.19,5-10.54-.2C240.37,125.52,236.18,121.66,231.84,117.56Z"/><path class="cls-4" d="M342.45,425.59c3.61,3.86,6.85,7.13,9.82,10.64a6.05,6.05,0,0,1,1.23,4c-1.24,15.39-2.65,30.77-4,46.16-1.24,14.65-2.37,29.31-3.65,43.95q-1.65,18.76-3.76,37.47c-1.2-14.6-2.32-29.21-3.63-43.8-1.74-19.47-3.64-38.93-5.48-58.39-.79-8.31-1.72-16.61-2.3-24.94A7.47,7.47,0,0,1,332.6,436C335.48,432.6,338.7,429.5,342.45,425.59Z"/><path class="cls-4" d="M324.62,444.65c3.56,41,7.15,82.2,10.74,123.42l-.3.08c-2.46-9.26-4.88-18.52-7.39-27.77-5-18.31-10-36.6-14.94-54.91-1.84-6.82-3.46-13.71-5.32-20.53a4.91,4.91,0,0,1,1.65-5.57C314.34,454.59,319.42,449.6,324.62,444.65Z"/><path class="cls-4" d="M360.22,443.61c6,6.16,11.51,11.54,16.6,17.29.95,1.09.6,3.79.14,5.57-3.53,13.7-7.2,27.37-10.91,41-3.28,12.1-6.7,24.16-10,36.26-2,7.4-3.89,14.85-6.53,22.19C353.06,525.6,356.58,485.24,360.22,443.61Z"/><path class="cls-4" d="M300.94,467.26c9.2,34.31,18.14,67.64,27.09,101l-.55.25c-2-4.11-4-8.21-5.87-12.33Q305,520.6,288.44,485.06c-1.16-2.46-1.23-4.09,1-6.1C293.27,475.53,296.69,471.64,300.94,467.26Z"/><path class="cls-4" d="M357.23,566.22c8.73-32.58,17.46-65.15,26.45-98.68,4.84,4.86,9.19,9.15,13.42,13.57.38.39.2,1.65-.11,2.33Q383.3,512.77,369.54,542c-3.47,7.42-6.79,14.91-10.21,22.35a17.82,17.82,0,0,1-1.36,2.13Z"/><path class="cls-4" d="M403.11,486.28c3.52,3.77,6.46,7.16,9.68,10.25,1.89,1.8,1.7,3.31.41,5.15q-11.35,16.11-22.69,32.23c-8.17,11.69-16.29,23.41-24.46,35.1a2.52,2.52,0,0,1-2,1C377,542.38,389.82,514.8,403.11,486.28Z"/><path class="cls-4" d="M320.45,571.34,269.72,498.9l12.15-12L321,570.84Z"/><path class="cls-4" d="M157.45,425.59c3.61,3.86,6.85,7.13,9.82,10.64a6.05,6.05,0,0,1,1.23,4c-1.24,15.39-2.65,30.77-4,46.16-1.24,14.65-2.37,29.31-3.65,43.95q-1.65,18.76-3.76,37.47c-1.2-14.6-2.32-29.21-3.63-43.8-1.74-19.47-3.64-38.93-5.48-58.39-.79-8.31-1.72-16.61-2.3-24.94A7.47,7.47,0,0,1,147.6,436C150.48,432.6,153.7,429.5,157.45,425.59Z"/><path class="cls-4" d="M139.62,444.65c3.56,41,7.15,82.2,10.74,123.42l-.3.08c-2.46-9.26-4.88-18.52-7.39-27.77-5-18.31-10-36.6-14.94-54.91-1.84-6.82-3.46-13.71-5.32-20.53a4.91,4.91,0,0,1,1.65-5.57C129.34,454.59,134.42,449.6,139.62,444.65Z"/><path class="cls-4" d="M175.22,443.61c6,6.16,11.51,11.54,16.6,17.29,1,1.09.6,3.79.14,5.57-3.53,13.7-7.2,27.37-10.91,41-3.28,12.1-6.7,24.16-10,36.26-2,7.4-3.89,14.85-6.53,22.19C168.06,525.6,171.58,485.24,175.22,443.61Z"/><path class="cls-4" d="M115.94,467.26c9.2,34.31,18.14,67.64,27.09,101l-.55.25c-2-4.11-3.95-8.21-5.87-12.33Q120,520.6,103.44,485.06c-1.16-2.46-1.23-4.09,1-6.1C108.27,475.53,111.69,471.64,115.94,467.26Z"/><path class="cls-4" d="M172.23,566.22c8.73-32.58,17.46-65.15,26.45-98.68,4.84,4.86,9.19,9.15,13.42,13.57.38.39.2,1.65-.11,2.33Q198.3,512.77,184.54,542c-3.47,7.42-6.79,14.91-10.21,22.35a17.82,17.82,0,0,1-1.36,2.13Z"/><path class="cls-4" d="M218.11,486.28c3.52,3.77,6.46,7.16,9.68,10.25,1.89,1.8,1.7,3.31.41,5.15q-11.35,16.11-22.69,32.23c-8.17,11.69-16.29,23.41-24.46,35.1a2.52,2.52,0,0,1-2,1C192,542.38,204.82,514.8,218.11,486.28Z"/><path class="cls-4" d="M135.45,571.34,84.72,498.9l12.15-12L136,570.84Z"/><path class="cls-4" d="M250,331.59c3.61,3.86,6.85,7.13,9.82,10.64a6.05,6.05,0,0,1,1.23,4c-1.24,15.39-2.65,30.77-4,46.16-1.24,14.65-2.37,29.31-3.65,43.95q-1.65,18.76-3.76,37.47c-1.2-14.6-2.32-29.21-3.63-43.8-1.74-19.47-3.64-38.93-5.48-58.39-.79-8.31-1.72-16.61-2.3-24.94A7.47,7.47,0,0,1,240.1,342C243,338.6,246.2,335.5,250,331.59Z"/><path class="cls-4" d="M232.12,350.65c3.56,41,7.15,82.2,10.74,123.42l-.3.08c-2.46-9.26-4.88-18.52-7.39-27.77-5-18.31-10-36.6-14.94-54.91-1.84-6.82-3.46-13.71-5.32-20.53a4.91,4.91,0,0,1,1.65-5.57C221.84,360.59,226.92,355.6,232.12,350.65Z"/><path class="cls-4" d="M267.72,349.61c6,6.16,11.51,11.54,16.6,17.29.95,1.09.6,3.79.14,5.57-3.53,13.7-7.2,27.37-10.91,41-3.28,12.1-6.7,24.16-10,36.26-2,7.4-3.89,14.85-6.53,22.19C260.56,431.6,264.08,391.24,267.72,349.61Z"/><path class="cls-4" d="M208.44,373.26c9.2,34.31,18.14,67.64,27.09,101l-.55.25c-2-4.11-3.95-8.21-5.87-12.33q-16.58-35.55-33.17-71.09c-1.16-2.46-1.23-4.09,1-6.1C200.77,381.53,204.19,377.64,208.44,373.26Z"/><path class="cls-4" d="M264.73,472.22c8.73-32.58,17.46-65.15,26.45-98.68,4.84,4.86,9.19,9.15,13.42,13.57.38.39.2,1.65-.11,2.33Q290.8,418.77,277,448c-3.47,7.42-6.79,14.91-10.21,22.35a17.82,17.82,0,0,1-1.36,2.13Z"/><path class="cls-4" d="M310.61,392.28c3.52,3.77,6.46,7.16,9.68,10.25,1.89,1.8,1.7,3.31.41,5.15Q309.35,423.79,298,439.91c-8.17,11.69-16.29,23.41-24.46,35.1a2.52,2.52,0,0,1-2,1C284.45,448.38,297.32,420.8,310.61,392.28Z"/><path class="cls-4" d="M228,477.34,177.22,404.9l12.15-12,39.16,83.91Z"/><path class="cls-4" d="M223.31,483.5Q210.19,470.27,197.05,457c-11-11-22-22-33.05-33-2.25-2.22-2.8-3.75-.16-6.18s5-5.7,7.88-9c17.92,25.57,35,49.93,52.05,74.28Z"/><path class="cls-4" d="M327.3,409.81l10.62,11.09-60.5,60.2Z"/><path class="cls-4" d="M231.84,492.56c9-8.59,27.4-8.59,36.06.12-4.3,4-8.64,8-12.9,12-5.25,5-5.19,5-10.54-.2C240.37,500.52,236.18,496.66,231.84,492.56Z"/><path class="cls-4" d="M436,332.59c3.61,3.86,6.85,7.13,9.82,10.64a6.05,6.05,0,0,1,1.23,4c-1.24,15.39-2.65,30.77-4,46.16-1.24,14.65-2.37,29.31-3.65,43.95q-1.65,18.76-3.76,37.47c-1.2-14.6-2.32-29.21-3.63-43.8-1.74-19.47-3.64-38.93-5.48-58.39-.79-8.31-1.72-16.61-2.3-24.94A7.47,7.47,0,0,1,426.1,343C429,339.6,432.2,336.5,436,332.59Z"/><path class="cls-4" d="M418.12,351.65c3.56,41,7.15,82.2,10.74,123.42l-.3.08c-2.46-9.26-4.88-18.52-7.39-27.77-5-18.31-10-36.6-14.94-54.91-1.84-6.82-3.46-13.71-5.32-20.53a4.91,4.91,0,0,1,1.65-5.57C407.84,361.59,412.92,356.6,418.12,351.65Z"/><path class="cls-4" d="M453.72,350.61c6,6.16,11.51,11.54,16.6,17.29.95,1.09.6,3.79.14,5.57-3.53,13.7-7.2,27.37-10.91,41-3.28,12.1-6.7,24.16-10,36.26-2,7.4-3.89,14.85-6.53,22.19C446.56,432.6,450.08,392.24,453.72,350.61Z"/><path class="cls-4" d="M394.44,374.26c9.2,34.31,18.14,67.64,27.09,101l-.55.25c-2-4.11-4-8.21-5.87-12.33q-16.58-35.55-33.17-71.09c-1.16-2.46-1.23-4.09,1-6.1C386.77,382.53,390.19,378.64,394.44,374.26Z"/><path class="cls-4" d="M450.73,473.22c8.73-32.58,17.46-65.15,26.45-98.68,4.84,4.86,9.19,9.15,13.42,13.57.38.39.2,1.65-.11,2.33Q476.8,419.77,463,449c-3.47,7.42-6.79,14.91-10.21,22.35a17.82,17.82,0,0,1-1.36,2.13Z"/><path class="cls-4" d="M496.61,393.28c3.52,3.77,6.46,7.16,9.68,10.25,1.89,1.8,1.7,3.31.41,5.15Q495.35,424.79,484,440.91c-8.17,11.69-16.29,23.41-24.46,35.1a2.52,2.52,0,0,1-2,1C470.45,449.38,483.32,421.8,496.61,393.28Z"/><path class="cls-4" d="M414,478.34,363.22,405.9l12.15-12,39.16,83.91Z"/><path class="cls-4" d="M409.31,484.5Q396.19,471.27,383.05,458c-11-11-22-22-33.05-33-2.25-2.22-2.8-3.75-.16-6.18s5-5.7,7.88-9c17.92,25.57,35,49.93,52,74.28Z"/><path class="cls-4" d="M513.3,410.81l10.62,11.09-60.5,60.2Z"/><path class="cls-4" d="M417.84,493.56c9-8.59,27.4-8.59,36.06.12-4.3,4-8.64,8-12.9,12-5.25,5-5.19,5-10.54-.2C426.37,501.52,422.18,497.66,417.84,493.56Z"/><path class="cls-4" d="M510.62,256.65c3.56,41,7.15,82.2,10.74,123.42l-.3.08c-2.46-9.26-4.88-18.52-7.39-27.77-5-18.31-10-36.6-14.94-54.91-1.84-6.82-3.46-13.71-5.32-20.53a4.91,4.91,0,0,1,1.65-5.57C500.34,266.59,505.42,261.6,510.62,256.65Z"/><path class="cls-4" d="M486.94,279.26c9.2,34.31,18.14,67.64,27.09,101l-.55.25c-2-4.11-4-8.21-5.87-12.33Q491,332.6,474.44,297.06c-1.16-2.46-1.23-4.09,1-6.1C479.27,287.53,482.69,283.64,486.94,279.26Z"/><path class="cls-4" d="M506.45,383.34,455.72,310.9l12.15-12L507,382.84Z"/><path class="cls-4" d="M501.81,389.5Q488.69,376.27,475.55,363c-11-11-22-22-33.05-33-2.25-2.22-2.8-3.75-.16-6.18s5-5.7,7.88-9c17.92,25.57,35,49.93,52,74.28Z"/><path class="cls-4" d="M343.45,237.59c3.61,3.86,6.85,7.13,9.82,10.64a6.05,6.05,0,0,1,1.23,4c-1.24,15.39-2.65,30.77-4,46.16-1.24,14.65-2.37,29.31-3.65,43.95q-1.65,18.76-3.76,37.47c-1.2-14.6-2.32-29.21-3.63-43.8-1.74-19.47-3.64-38.93-5.48-58.39-.79-8.31-1.72-16.61-2.3-24.94A7.47,7.47,0,0,1,333.6,248C336.48,244.6,339.7,241.5,343.45,237.59Z"/><path class="cls-4" d="M325.62,256.65c3.56,41,7.15,82.2,10.74,123.42l-.3.08c-2.46-9.26-4.88-18.52-7.39-27.77-5-18.31-10-36.6-14.94-54.91-1.84-6.82-3.46-13.71-5.32-20.53a4.91,4.91,0,0,1,1.65-5.57C315.34,266.59,320.42,261.6,325.62,256.65Z"/><path class="cls-4" d="M361.22,255.61c6,6.16,11.51,11.54,16.6,17.29.95,1.09.6,3.79.14,5.57-3.53,13.7-7.2,27.37-10.91,41-3.28,12.1-6.7,24.16-10,36.26-2,7.4-3.89,14.85-6.53,22.19C354.06,337.6,357.58,297.24,361.22,255.61Z"/><path class="cls-4" d="M301.94,279.26c9.2,34.31,18.14,67.64,27.09,101l-.55.25c-2-4.11-4-8.21-5.87-12.33Q306,332.6,289.44,297.06c-1.16-2.46-1.23-4.09,1-6.1C294.27,287.53,297.69,283.64,301.94,279.26Z"/><path class="cls-4" d="M358.23,378.22c8.73-32.58,17.46-65.15,26.45-98.68,4.84,4.86,9.19,9.15,13.42,13.57.38.39.2,1.65-.11,2.33Q384.3,324.77,370.54,354c-3.47,7.42-6.79,14.91-10.21,22.35a17.82,17.82,0,0,1-1.36,2.13Z"/><path class="cls-4" d="M404.11,298.28c3.52,3.77,6.46,7.16,9.68,10.25,1.89,1.8,1.7,3.31.41,5.15q-11.35,16.11-22.69,32.23c-8.17,11.69-16.29,23.41-24.46,35.1a2.52,2.52,0,0,1-2,1C378,354.38,390.82,326.8,404.11,298.28Z"/><path class="cls-4" d="M321.45,383.34,270.72,310.9l12.15-12L322,382.84Z"/><path class="cls-4" d="M316.81,389.5Q303.69,376.27,290.55,363c-11-11-22-22-33.05-33-2.25-2.22-2.8-3.75-.16-6.18s5-5.7,7.88-9c17.92,25.57,35,49.93,52,74.28Z"/><path class="cls-4" d="M420.8,315.81l10.62,11.09-60.5,60.2Z"/><path class="cls-4" d="M325.34,398.56c9-8.59,27.4-8.59,36.06.12-4.3,4-8.64,8-12.9,12-5.25,5-5.19,5-10.54-.2C333.87,406.52,329.68,402.66,325.34,398.56Z"/><path class="cls-4" d="M436,143.59c3.61,3.86,6.85,7.13,9.82,10.64a6.05,6.05,0,0,1,1.23,4c-1.24,15.39-2.65,30.77-4,46.16-1.24,14.65-2.37,29.31-3.65,44q-1.65,18.76-3.76,37.47c-1.2-14.6-2.32-29.21-3.63-43.8-1.74-19.47-3.64-38.93-5.48-58.39-.79-8.31-1.72-16.61-2.3-24.94A7.47,7.47,0,0,1,426.1,154C429,150.6,432.2,147.5,436,143.59Z"/><path class="cls-4" d="M418.12,162.65c3.56,41,7.15,82.2,10.74,123.42l-.3.08c-2.46-9.26-4.88-18.52-7.39-27.77-5-18.31-10-36.6-14.94-54.91-1.84-6.82-3.46-13.71-5.32-20.53a4.91,4.91,0,0,1,1.65-5.57C407.84,172.59,412.92,167.6,418.12,162.65Z"/><path class="cls-4" d="M453.72,161.61c6,6.16,11.51,11.54,16.6,17.29.95,1.09.6,3.79.14,5.57-3.53,13.7-7.2,27.37-10.91,41-3.28,12.1-6.7,24.16-10,36.26-2,7.4-3.89,14.85-6.53,22.19C446.56,243.6,450.08,203.24,453.72,161.61Z"/><path class="cls-4" d="M394.44,185.26c9.2,34.31,18.14,67.64,27.09,101l-.55.25c-2-4.11-4-8.21-5.87-12.33q-16.58-35.55-33.17-71.09c-1.16-2.46-1.23-4.09,1-6.1C386.77,193.53,390.19,189.64,394.44,185.26Z"/><path class="cls-4" d="M450.73,284.22c8.73-32.58,17.46-65.15,26.45-98.68,4.84,4.86,9.19,9.15,13.42,13.57.38.39.2,1.65-.11,2.33Q476.8,230.77,463,260c-3.47,7.42-6.79,14.91-10.21,22.35a17.82,17.82,0,0,1-1.36,2.13Z"/><path class="cls-4" d="M496.61,204.28c3.52,3.77,6.46,7.16,9.68,10.25,1.89,1.8,1.7,3.31.41,5.15Q495.35,235.79,484,251.91c-8.17,11.69-16.29,23.41-24.46,35.1a2.52,2.52,0,0,1-2,1C470.45,260.38,483.32,232.8,496.61,204.28Z"/><path class="cls-4" d="M414,289.34,363.22,216.9l12.15-12,39.16,83.91Z"/><path class="cls-4" d="M409.31,295.5Q396.19,282.27,383.05,269c-11-11-22-22-33.05-33-2.25-2.22-2.8-3.75-.16-6.18s5-5.7,7.88-9c17.92,25.57,35,49.93,52,74.28Z"/><path class="cls-4" d="M513.3,221.81l10.62,11.09-60.5,60.2Z"/><path class="cls-4" d="M417.84,304.56c9-8.59,27.4-8.59,36.06.12-4.3,4-8.64,8-12.9,12-5.25,5-5.19,5-10.54-.2C426.37,312.52,422.18,308.66,417.84,304.56Z"/><path class="cls-4" d="M64,333.59c3.61,3.86,6.85,7.13,9.82,10.64a6.05,6.05,0,0,1,1.23,4c-1.24,15.39-2.65,30.77-4,46.16-1.24,14.65-2.37,29.31-3.65,43.95q-1.65,18.76-3.76,37.47c-1.2-14.6-2.32-29.21-3.63-43.8-1.74-19.47-3.64-38.93-5.48-58.39-.79-8.31-1.72-16.61-2.3-24.94A7.47,7.47,0,0,1,54.1,344C57,340.6,60.2,337.5,64,333.59Z"/><path class="cls-4" d="M46.12,352.65c3.56,41,7.15,82.2,10.74,123.42l-.3.08c-2.46-9.26-4.88-18.52-7.39-27.77-5-18.31-10-36.6-14.94-54.91-1.84-6.82-3.46-13.71-5.32-20.53a4.91,4.91,0,0,1,1.65-5.57C35.84,362.59,40.92,357.6,46.12,352.65Z"/><path class="cls-4" d="M81.72,351.61c6,6.16,11.51,11.54,16.6,17.29,1,1.09.6,3.79.14,5.57-3.53,13.7-7.2,27.37-10.91,41-3.28,12.1-6.7,24.16-10,36.26-2,7.4-3.89,14.85-6.53,22.19C74.56,433.6,78.08,393.24,81.72,351.61Z"/><path class="cls-4" d="M22.44,375.26c9.2,34.31,18.14,67.64,27.09,101l-.55.25c-2-4.11-3.95-8.21-5.87-12.33Q26.54,428.6,9.94,393.06C8.78,390.6,8.71,389,11,387,14.77,383.53,18.19,379.64,22.44,375.26Z"/><path class="cls-4" d="M78.73,474.22c8.73-32.58,17.46-65.15,26.45-98.68,4.84,4.86,9.19,9.15,13.42,13.57.38.39.2,1.65-.11,2.33Q104.8,420.77,91,450c-3.47,7.42-6.79,14.91-10.21,22.35a17.82,17.82,0,0,1-1.36,2.13Z"/><path class="cls-4" d="M124.61,394.28c3.52,3.77,6.46,7.16,9.68,10.25,1.89,1.8,1.7,3.31.41,5.15Q123.35,425.79,112,441.91c-8.17,11.69-16.29,23.41-24.46,35.1a2.52,2.52,0,0,1-2,1C98.45,450.38,111.32,422.8,124.61,394.28Z"/><path class="cls-4" d="M42,479.34-8.78,406.9l12.15-12,39.16,83.91Z"/><path class="cls-4" d="M37.31,485.5Q24.18,472.27,11.05,459c-11-11-22-22-33-33-2.25-2.22-2.8-3.75-.16-6.18s5-5.7,7.88-9c17.92,25.57,35,49.93,52.05,74.28Z"/><path class="cls-4" d="M141.3,411.81l10.62,11.09-60.5,60.2Z"/><path class="cls-4" d="M45.84,494.56c9-8.59,27.4-8.59,36.06.12-4.3,4-8.64,8-12.9,12-5.25,5-5.19,5-10.54-.2C54.37,502.52,50.18,498.66,45.84,494.56Z"/><path class="cls-4" d="M156.45,238.59c3.61,3.86,6.85,7.13,9.82,10.64a6.05,6.05,0,0,1,1.23,4c-1.24,15.39-2.65,30.77-4,46.16-1.24,14.65-2.37,29.31-3.65,43.95q-1.65,18.76-3.76,37.47c-1.2-14.6-2.32-29.21-3.63-43.8-1.74-19.47-3.64-38.93-5.48-58.39-.79-8.31-1.72-16.61-2.3-24.94A7.47,7.47,0,0,1,146.6,249C149.48,245.6,152.7,242.5,156.45,238.59Z"/><path class="cls-4" d="M138.62,257.65c3.56,41,7.15,82.2,10.74,123.42l-.3.08c-2.46-9.26-4.88-18.52-7.39-27.77-5-18.31-10-36.6-14.94-54.91-1.84-6.82-3.46-13.71-5.32-20.53a4.91,4.91,0,0,1,1.65-5.57C128.34,267.59,133.42,262.6,138.62,257.65Z"/><path class="cls-4" d="M174.22,256.61c6,6.16,11.51,11.54,16.6,17.29,1,1.09.6,3.79.14,5.57-3.53,13.7-7.2,27.37-10.91,41-3.28,12.1-6.7,24.16-10,36.26-2,7.4-3.89,14.85-6.53,22.19C167.06,338.6,170.58,298.24,174.22,256.61Z"/><path class="cls-4" d="M114.94,280.26c9.2,34.31,18.14,67.64,27.09,101l-.55.25c-2-4.11-3.95-8.21-5.87-12.33Q119,333.6,102.44,298.06c-1.16-2.46-1.23-4.09,1-6.1C107.27,288.53,110.69,284.64,114.94,280.26Z"/><path class="cls-4" d="M171.23,379.22c8.73-32.58,17.46-65.15,26.45-98.68,4.84,4.86,9.19,9.15,13.42,13.57.38.39.2,1.65-.11,2.33Q197.3,325.77,183.54,355c-3.47,7.42-6.79,14.91-10.21,22.35a17.82,17.82,0,0,1-1.36,2.13Z"/><path class="cls-4" d="M217.11,299.28c3.52,3.77,6.46,7.16,9.68,10.25,1.89,1.8,1.7,3.31.41,5.15q-11.35,16.11-22.69,32.23c-8.17,11.69-16.29,23.41-24.46,35.1a2.52,2.52,0,0,1-2,1C191,355.38,203.82,327.8,217.11,299.28Z"/><path class="cls-4" d="M134.45,384.34,83.72,311.9l12.15-12L135,383.84Z"/><path class="cls-4" d="M129.81,390.5Q116.69,377.27,103.55,364c-11-11-22-22-33-33-2.25-2.22-2.8-3.75-.16-6.18s5-5.7,7.88-9c17.92,25.57,35,49.93,52.05,74.28Z"/><path class="cls-4" d="M233.8,316.81l10.62,11.09-60.5,60.2Z"/><path class="cls-4" d="M138.34,399.56c9-8.59,27.4-8.59,36.06.12-4.3,4-8.64,8-12.9,12-5.25,5-5.19,5-10.54-.2C146.87,407.52,142.68,403.66,138.34,399.56Z"/><path class="cls-4" d="M-10.78,256.61c6,6.16,11.51,11.54,16.6,17.29.95,1.09.6,3.79.14,5.57-3.53,13.7-7.2,27.37-10.91,41-3.28,12.1-6.7,24.16-10,36.26-2,7.4-3.89,14.85-6.53,22.19C-17.94,338.6-14.42,298.24-10.78,256.61Z"/><path class="cls-4" d="M-13.77,379.22C-5,346.64,3.69,314.07,12.68,280.54c4.84,4.86,9.19,9.15,13.42,13.57.38.39.2,1.65-.11,2.33Q12.3,325.77-1.46,355c-3.47,7.42-6.79,14.91-10.21,22.35A17.82,17.82,0,0,1-13,379.52Z"/><path class="cls-4" d="M32.11,299.28c3.52,3.77,6.46,7.16,9.68,10.25,1.89,1.8,1.7,3.31.41,5.15q-11.35,16.11-22.69,32.23C11.34,358.6,3.22,370.32-4.95,382a2.52,2.52,0,0,1-2,1C6,355.38,18.82,327.8,32.11,299.28Z"/><path class="cls-4" d="M48.8,316.81,59.42,327.9l-60.5,60.2Z"/><path class="cls-4" d="M64,144.59c3.61,3.86,6.85,7.13,9.82,10.64a6.05,6.05,0,0,1,1.23,4c-1.24,15.39-2.65,30.77-4,46.16-1.24,14.65-2.37,29.31-3.65,44q-1.65,18.76-3.76,37.47c-1.2-14.6-2.32-29.21-3.63-43.8-1.74-19.47-3.64-38.93-5.48-58.39-.79-8.31-1.72-16.61-2.3-24.94A7.47,7.47,0,0,1,54.1,155C57,151.6,60.2,148.5,64,144.59Z"/><path class="cls-4" d="M46.12,163.65c3.56,41,7.15,82.2,10.74,123.42l-.3.08c-2.46-9.26-4.88-18.52-7.39-27.77-5-18.31-10-36.6-14.94-54.91-1.84-6.82-3.46-13.71-5.32-20.53a4.91,4.91,0,0,1,1.65-5.57C35.84,173.59,40.92,168.6,46.12,163.65Z"/><path class="cls-4" d="M81.72,162.61c6,6.16,11.51,11.54,16.6,17.29,1,1.09.6,3.79.14,5.57-3.53,13.7-7.2,27.37-10.91,41-3.28,12.1-6.7,24.16-10,36.26-2,7.4-3.89,14.85-6.53,22.19C74.56,244.6,78.08,204.24,81.72,162.61Z"/><path class="cls-4" d="M22.44,186.26c9.2,34.31,18.14,67.64,27.09,101l-.55.25c-2-4.11-3.95-8.21-5.87-12.33Q26.54,239.6,9.94,204.06C8.78,201.6,8.71,200,11,198,14.77,194.53,18.19,190.64,22.44,186.26Z"/><path class="cls-4" d="M78.73,285.22c8.73-32.58,17.46-65.15,26.45-98.68,4.84,4.86,9.19,9.15,13.42,13.57.38.39.2,1.65-.11,2.33Q104.8,231.77,91,261c-3.47,7.42-6.79,14.91-10.21,22.35a17.82,17.82,0,0,1-1.36,2.13Z"/><path class="cls-4" d="M124.61,205.28c3.52,3.77,6.46,7.16,9.68,10.25,1.89,1.8,1.7,3.31.41,5.15Q123.35,236.79,112,252.91c-8.17,11.69-16.29,23.41-24.46,35.1a2.52,2.52,0,0,1-2,1C98.45,261.38,111.32,233.8,124.61,205.28Z"/><path class="cls-4" d="M42,290.34-8.78,217.9l12.15-12,39.16,83.91Z"/><path class="cls-4" d="M37.31,296.5Q24.18,283.27,11.05,270c-11-11-22-22-33-33-2.25-2.22-2.8-3.75-.16-6.18s5-5.7,7.88-9c17.92,25.57,35,49.93,52.05,74.28Z"/><path class="cls-4" d="M141.3,222.81l10.62,11.09-60.5,60.2Z"/><path class="cls-4" d="M45.84,305.56c9-8.59,27.4-8.59,36.06.12-4.3,4-8.64,8-12.9,12-5.25,5-5.19,5-10.54-.2C54.37,313.52,50.18,309.66,45.84,305.56Z"/><path class="cls-4" d="M434-42.41c3.61,3.86,6.85,7.13,9.82,10.64a6.05,6.05,0,0,1,1.23,4c-1.24,15.39-2.65,30.77-4,46.16-1.24,14.65-2.37,29.31-3.65,44q-1.65,18.77-3.76,37.47c-1.2-14.6-2.32-29.21-3.63-43.8-1.74-19.47-3.64-38.93-5.48-58.39-.79-8.31-1.72-16.61-2.3-24.94A7.47,7.47,0,0,1,424.1-32C427-35.4,430.2-38.5,434-42.41Z"/><path class="cls-4" d="M416.12-23.35c3.56,41,7.15,82.2,10.74,123.42l-.3.08c-2.46-9.26-4.88-18.52-7.39-27.77-5-18.31-10-36.6-14.94-54.91-1.84-6.82-3.46-13.71-5.32-20.53a4.91,4.91,0,0,1,1.65-5.57C405.84-13.41,410.92-18.4,416.12-23.35Z"/><path class="cls-4" d="M451.72-24.39c6,6.16,11.51,11.54,16.6,17.29.95,1.09.6,3.79.14,5.57-3.53,13.7-7.2,27.37-10.91,41-3.28,12.1-6.7,24.16-10,36.26-2,7.4-3.89,14.85-6.53,22.19C444.56,57.6,448.08,17.24,451.72-24.39Z"/><path class="cls-4" d="M392.44-.74c9.2,34.31,18.14,67.64,27.09,101l-.55.25c-2-4.11-4-8.21-5.87-12.33Q396.54,52.6,379.94,17.06c-1.16-2.46-1.23-4.09,1-6.1C384.77,7.53,388.19,3.64,392.44-.74Z"/><path class="cls-4" d="M448.73,98.22c8.73-32.58,17.46-65.15,26.45-98.68C480,4.4,484.37,8.69,488.6,13.11c.38.39.2,1.65-.11,2.33Q474.8,44.77,461,74c-3.47,7.42-6.79,14.91-10.21,22.35a17.82,17.82,0,0,1-1.36,2.13Z"/><path class="cls-4" d="M494.61,18.28c3.52,3.77,6.46,7.16,9.68,10.25,1.89,1.8,1.7,3.31.41,5.15Q493.35,49.79,482,65.91c-8.17,11.69-16.29,23.41-24.46,35.1a2.52,2.52,0,0,1-2,1C468.45,74.38,481.32,46.8,494.61,18.28Z"/><path class="cls-4" d="M412,103.34,361.22,30.9l12.15-12,39.16,83.91Z"/><path class="cls-4" d="M407.31,109.5Q394.19,96.27,381.05,83c-11-11-22-22-33.05-32.95-2.25-2.22-2.8-3.75-.16-6.18s5-5.7,7.88-9c17.92,25.57,35,49.93,52,74.28Z"/><path class="cls-4" d="M511.3,35.81,521.92,46.9l-60.5,60.2Z"/><path class="cls-4" d="M415.84,118.56c9-8.59,27.4-8.59,36.06.12-4.3,4-8.64,8-12.9,12-5.25,5-5.19,5-10.54-.2C424.37,126.52,420.18,122.66,415.84,118.56Z"/><path class="cls-4" d="M508.62-118.35c3.56,41,7.15,82.2,10.74,123.42l-.3.08c-2.46-9.26-4.88-18.52-7.39-27.77-5-18.31-10-36.6-14.94-54.91-1.84-6.82-3.46-13.71-5.32-20.53a4.91,4.91,0,0,1,1.65-5.57C498.34-108.41,503.42-113.4,508.62-118.35Z"/><path class="cls-4" d="M484.94-95.74c9.2,34.31,18.14,67.64,27.09,101l-.55.25c-2-4.11-4-8.21-5.87-12.33Q489-42.4,472.44-77.94c-1.16-2.46-1.23-4.09,1-6.1C477.27-87.47,480.69-91.36,484.94-95.74Z"/><path class="cls-4" d="M504.45,8.34,453.72-64.1l12.15-12L505,7.84Z"/><path class="cls-4" d="M499.81,14.5Q486.69,1.27,473.55-12c-11-11-22-22-33.05-32.95-2.25-2.22-2.8-3.75-.16-6.18s5-5.7,7.88-9c17.92,25.57,35,49.93,52,74.28Z"/><path class="cls-4" d="M341.45-137.41c3.61,3.86,6.85,7.13,9.82,10.64a6.05,6.05,0,0,1,1.23,4c-1.24,15.39-2.65,30.77-4,46.16-1.24,14.65-2.37,29.31-3.65,44q-1.65,18.77-3.76,37.47c-1.2-14.6-2.32-29.21-3.63-43.8-1.74-19.47-3.64-38.93-5.48-58.39-.79-8.31-1.72-16.61-2.3-24.94A7.47,7.47,0,0,1,331.6-127C334.48-130.4,337.7-133.5,341.45-137.41Z"/><path class="cls-4" d="M323.62-118.35c3.56,41,7.15,82.2,10.74,123.42l-.3.08c-2.46-9.26-4.88-18.52-7.39-27.77-5-18.31-10-36.6-14.94-54.91-1.84-6.82-3.46-13.71-5.32-20.53a4.91,4.91,0,0,1,1.65-5.57C313.34-108.41,318.42-113.4,323.62-118.35Z"/><path class="cls-4" d="M359.22-119.39c6,6.16,11.51,11.54,16.6,17.29.95,1.09.6,3.79.14,5.57-3.53,13.7-7.2,27.37-10.91,41-3.28,12.1-6.7,24.16-10,36.26-2,7.4-3.89,14.85-6.53,22.19C352.06-37.4,355.58-77.76,359.22-119.39Z"/><path class="cls-4" d="M299.94-95.74c9.2,34.31,18.14,67.64,27.09,101l-.55.25c-2-4.11-4-8.21-5.87-12.33Q304-42.4,287.44-77.94c-1.16-2.46-1.23-4.09,1-6.1C292.27-87.47,295.69-91.36,299.94-95.74Z"/><path class="cls-4" d="M356.23,3.22c8.73-32.58,17.46-65.15,26.45-98.68,4.84,4.86,9.19,9.15,13.42,13.57.38.39.2,1.65-.11,2.33Q382.3-50.23,368.54-21C365.07-13.54,361.75-6,358.33,1.39A17.82,17.82,0,0,1,357,3.52Z"/><path class="cls-4" d="M402.11-76.72c3.52,3.77,6.46,7.16,9.68,10.25,1.89,1.8,1.7,3.31.41,5.15q-11.35,16.11-22.69,32.23C381.34-17.4,373.22-5.68,365.05,6a2.52,2.52,0,0,1-2,1C376-20.62,388.82-48.2,402.11-76.72Z"/><path class="cls-4" d="M319.45,8.34,268.72-64.1l12.15-12L320,7.84Z"/><path class="cls-4" d="M314.81,14.5Q301.69,1.27,288.55-12c-11-11-22-22-33.05-32.95-2.25-2.22-2.8-3.75-.16-6.18s5-5.7,7.88-9c17.92,25.57,35,49.93,52,74.28Z"/><path class="cls-4" d="M418.8-59.19,429.42-48.1l-60.5,60.2Z"/><path class="cls-4" d="M323.34,23.56c9-8.59,27.4-8.59,36.06.12-4.3,4-8.64,8-12.9,12-5.25,5-5.19,5-10.54-.2C331.87,31.52,327.68,27.66,323.34,23.56Z"/><path class="cls-4" d="M509.62,68.65c3.56,41,7.15,82.2,10.74,123.42l-.3.08c-2.46-9.26-4.88-18.52-7.39-27.77-5-18.31-10-36.6-14.94-54.91-1.84-6.82-3.46-13.71-5.32-20.53a4.91,4.91,0,0,1,1.65-5.57C499.34,78.59,504.42,73.6,509.62,68.65Z"/><path class="cls-4" d="M485.94,91.26c9.2,34.31,18.14,67.64,27.09,101l-.55.25c-2-4.11-4-8.21-5.87-12.33Q490,144.6,473.44,109.06c-1.16-2.46-1.23-4.09,1-6.1C478.27,99.53,481.69,95.64,485.94,91.26Z"/><path class="cls-4" d="M505.45,195.34,454.72,122.9l12.15-12L506,194.84Z"/><path class="cls-4" d="M500.81,201.5Q487.69,188.27,474.55,175c-11-11-22-22-33.05-32.95-2.25-2.22-2.8-3.75-.16-6.18s5-5.7,7.88-9c17.92,25.57,35,49.93,52,74.28Z"/><path class="cls-4" d="M65-42.41c3.61,3.86,6.85,7.13,9.82,10.64a6.05,6.05,0,0,1,1.23,4C74.76-12.36,73.35,3,72,18.41c-1.24,14.65-2.37,29.31-3.65,44q-1.65,18.77-3.76,37.47C63.42,85.23,62.3,70.62,61,56,59.25,36.56,57.35,17.1,55.51-2.36c-.79-8.31-1.72-16.61-2.3-24.94A7.47,7.47,0,0,1,55.1-32C58-35.4,61.2-38.5,65-42.41Z"/><path class="cls-4" d="M47.12-23.35c3.56,41,7.15,82.2,10.74,123.42l-.3.08c-2.46-9.26-4.88-18.52-7.39-27.77-5-18.31-10-36.6-14.94-54.91-1.84-6.82-3.46-13.71-5.32-20.53a4.91,4.91,0,0,1,1.65-5.57C36.84-13.41,41.92-18.4,47.12-23.35Z"/><path class="cls-4" d="M82.72-24.39c6,6.16,11.51,11.54,16.6,17.29,1,1.09.6,3.79.14,5.57-3.53,13.7-7.2,27.37-10.91,41-3.28,12.1-6.7,24.16-10,36.26-2,7.4-3.89,14.85-6.53,22.19C75.56,57.6,79.08,17.24,82.72-24.39Z"/><path class="cls-4" d="M23.44-.74c9.2,34.31,18.14,67.64,27.09,101l-.55.25c-2-4.11-3.95-8.21-5.87-12.33Q27.54,52.6,10.94,17.06C9.78,14.6,9.71,13,12,11,15.77,7.53,19.19,3.64,23.44-.74Z"/><path class="cls-4" d="M79.73,98.22C88.46,65.64,97.19,33.07,106.18-.46,111,4.4,115.37,8.69,119.6,13.11c.38.39.2,1.65-.11,2.33Q105.8,44.77,92,74C88.57,81.46,85.25,89,81.83,96.39a17.82,17.82,0,0,1-1.36,2.13Z"/><path class="cls-4" d="M125.61,18.28c3.52,3.77,6.46,7.16,9.68,10.25,1.89,1.8,1.7,3.31.41,5.15Q124.35,49.79,113,65.91C104.84,77.6,96.72,89.32,88.55,101a2.52,2.52,0,0,1-2,1C99.45,74.38,112.32,46.8,125.61,18.28Z"/><path class="cls-4" d="M43,103.34-7.78,30.9l12.15-12,39.16,83.91Z"/><path class="cls-4" d="M38.31,109.5Q25.18,96.27,12.05,83c-11-11-22-22-33-32.95-2.25-2.22-2.8-3.75-.16-6.18s5-5.7,7.88-9c17.92,25.57,35,49.93,52.05,74.28Z"/><path class="cls-4" d="M142.3,35.81,152.92,46.9l-60.5,60.2Z"/><path class="cls-4" d="M46.84,118.56c9-8.59,27.4-8.59,36.06.12-4.3,4-8.64,8-12.9,12-5.25,5-5.19,5-10.54-.2C55.37,126.52,51.18,122.66,46.84,118.56Z"/><path class="cls-4" d="M157.45-137.41c3.61,3.86,6.85,7.13,9.82,10.64a6.05,6.05,0,0,1,1.23,4c-1.24,15.39-2.65,30.77-4,46.16-1.24,14.65-2.37,29.31-3.65,44q-1.65,18.77-3.76,37.47c-1.2-14.6-2.32-29.21-3.63-43.8-1.74-19.47-3.64-38.93-5.48-58.39-.79-8.31-1.72-16.61-2.3-24.94A7.47,7.47,0,0,1,147.6-127C150.48-130.4,153.7-133.5,157.45-137.41Z"/><path class="cls-4" d="M139.62-118.35c3.56,41,7.15,82.2,10.74,123.42l-.3.08c-2.46-9.26-4.88-18.52-7.39-27.77-5-18.31-10-36.6-14.94-54.91-1.84-6.82-3.46-13.71-5.32-20.53a4.91,4.91,0,0,1,1.65-5.57C129.34-108.41,134.42-113.4,139.62-118.35Z"/><path class="cls-4" d="M175.22-119.39c6,6.16,11.51,11.54,16.6,17.29,1,1.09.6,3.79.14,5.57-3.53,13.7-7.2,27.37-10.91,41-3.28,12.1-6.7,24.16-10,36.26-2,7.4-3.89,14.85-6.53,22.19C168.06-37.4,171.58-77.76,175.22-119.39Z"/><path class="cls-4" d="M115.94-95.74c9.2,34.31,18.14,67.64,27.09,101l-.55.25c-2-4.11-3.95-8.21-5.87-12.33Q120-42.4,103.44-77.94c-1.16-2.46-1.23-4.09,1-6.1C108.27-87.47,111.69-91.36,115.94-95.74Z"/><path class="cls-4" d="M172.23,3.22c8.73-32.58,17.46-65.15,26.45-98.68,4.84,4.86,9.19,9.15,13.42,13.57.38.39.2,1.65-.11,2.33Q198.3-50.23,184.54-21C181.07-13.54,177.75-6,174.33,1.39A17.82,17.82,0,0,1,173,3.52Z"/><path class="cls-4" d="M218.11-76.72c3.52,3.77,6.46,7.16,9.68,10.25,1.89,1.8,1.7,3.31.41,5.15q-11.35,16.11-22.69,32.23C197.34-17.4,189.22-5.68,181.05,6a2.52,2.52,0,0,1-2,1C192-20.62,204.82-48.2,218.11-76.72Z"/><path class="cls-4" d="M135.45,8.34,84.72-64.1l12.15-12L136,7.84Z"/><path class="cls-4" d="M130.81,14.5Q117.69,1.27,104.55-12c-11-11-22-22-33-32.95-2.25-2.22-2.8-3.75-.16-6.18s5-5.7,7.88-9c17.92,25.57,35,49.93,52.05,74.28Z"/><path class="cls-4" d="M234.8-59.19,245.42-48.1l-60.5,60.2Z"/><path class="cls-4" d="M139.34,23.56c9-8.59,27.4-8.59,36.06.12-4.3,4-8.64,8-12.9,12-5.25,5-5.19,5-10.54-.2C147.87,31.52,143.68,27.66,139.34,23.56Z"/><path class="cls-4" d="M-9.78-119.39c6,6.16,11.51,11.54,16.6,17.29.95,1.09.6,3.79.14,5.57-3.53,13.7-7.2,27.37-10.91,41-3.28,12.1-6.7,24.16-10,36.26-2,7.4-3.89,14.85-6.53,22.19C-16.94-37.4-13.42-77.76-9.78-119.39Z"/><path class="cls-4" d="M-12.77,3.22C-4-29.36,4.69-61.93,13.68-95.46c4.84,4.86,9.19,9.15,13.42,13.57.38.39.2,1.65-.11,2.33Q13.3-50.23-.46-21C-3.93-13.54-7.25-6-10.67,1.39A17.82,17.82,0,0,1-12,3.52Z"/><path class="cls-4" d="M33.11-76.72c3.52,3.77,6.46,7.16,9.68,10.25,1.89,1.8,1.7,3.31.41,5.15Q31.85-45.21,20.51-29.09C12.34-17.4,4.22-5.68-3.95,6a2.52,2.52,0,0,1-2,1C7-20.62,19.82-48.2,33.11-76.72Z"/><path class="cls-4" d="M49.8-59.19,60.42-48.1-.08,12.1Z"/><path class="cls-4" d="M-9.28,69.61c6,6.16,11.51,11.54,16.6,17.29.95,1.09.6,3.79.14,5.57-3.53,13.7-7.2,27.37-10.91,41-3.28,12.1-6.7,24.16-10,36.26-2,7.4-3.89,14.85-6.53,22.19C-16.44,151.6-12.92,111.24-9.28,69.61Z"/><path class="cls-4" d="M-12.27,192.22c8.73-32.58,17.46-65.15,26.45-98.68,4.84,4.86,9.19,9.15,13.42,13.57.38.39.2,1.65-.11,2.33Q13.8,138.77,0,168c-3.47,7.42-6.79,14.91-10.21,22.35a17.82,17.82,0,0,1-1.36,2.13Z"/><path class="cls-4" d="M33.61,112.28c3.52,3.77,6.46,7.16,9.68,10.25,1.89,1.8,1.7,3.31.41,5.15Q32.35,143.79,21,159.91C12.84,171.6,4.72,183.32-3.45,195a2.52,2.52,0,0,1-2,1C7.45,168.38,20.32,140.8,33.61,112.28Z"/><path class="cls-4" d="M50.3,129.81,60.92,140.9.42,201.1Z"/><path class="cls-4" d="M-11.28,443.61c6,6.16,11.51,11.54,16.6,17.29.95,1.09.6,3.79.14,5.57-3.53,13.7-7.2,27.37-10.91,41-3.28,12.1-6.7,24.16-10,36.26-2,7.4-3.89,14.85-6.53,22.19C-18.44,525.6-14.92,485.24-11.28,443.61Z"/><path class="cls-4" d="M-14.27,566.22c8.73-32.58,17.46-65.15,26.45-98.68,4.84,4.86,9.19,9.15,13.42,13.57.38.39.2,1.65-.11,2.33Q11.8,512.77-2,542c-3.47,7.42-6.79,14.91-10.21,22.35a17.82,17.82,0,0,1-1.36,2.13Z"/><path class="cls-4" d="M31.61,486.28c3.52,3.77,6.46,7.16,9.68,10.25,1.89,1.8,1.7,3.31.41,5.15Q30.35,517.79,19,533.91C10.84,545.6,2.72,557.32-5.45,569a2.52,2.52,0,0,1-2,1C5.45,542.38,18.32,514.8,31.61,486.28Z"/><path class="cls-4" d="M509.12,444.65c3.56,41,7.15,82.2,10.74,123.42l-.3.08c-2.46-9.26-4.88-18.52-7.39-27.77-5-18.31-10-36.6-14.94-54.91-1.84-6.82-3.46-13.71-5.32-20.53a4.91,4.91,0,0,1,1.65-5.57C498.84,454.59,503.92,449.6,509.12,444.65Z"/><path class="cls-4" d="M485.44,467.26c9.2,34.31,18.14,67.64,27.09,101l-.55.25c-2-4.11-4-8.21-5.87-12.33q-16.58-35.55-33.17-71.09c-1.16-2.46-1.23-4.09,1-6.1C477.77,475.53,481.19,471.64,485.44,467.26Z"/><path class="cls-4" d="M505,571.34,454.22,498.9l12.15-12,39.16,83.91Z"/></g></g><rect class="cls-5" x="25" y="205.72" width="450" height="88.55"/><path class="cls-6" d="M70.51,227.73a22.27,22.27,0,1,0,21.57,27.92H87.6a18,18,0,0,1-35.22-4.79H92.7C93.48,238.36,83.17,227.73,70.51,227.73ZM52.69,247a18,18,0,0,1,35.58,0Z"/><polygon class="cls-6" points="101.19 228.62 96.97 228.62 96.97 271.49 116.97 271.49 116.97 267.43 101.19 267.43 101.19 228.62"/><polygon class="cls-6" points="125.41 228.62 121.19 228.62 121.19 271.49 141.19 271.49 141.19 267.43 125.41 267.43 125.41 228.62"/><path class="cls-6" d="M161.4,227.73A22.27,22.27,0,1,0,183,255.65h-4.48a18,18,0,0,1-35.21-4.79H183.6C184.38,238.36,174.06,227.73,161.4,227.73ZM143.59,247a18,18,0,0,1,35.58,0Z"/><polygon class="cls-6" points="211.51 266.8 192.81 228.62 187.81 228.62 187.81 271.49 192.03 271.49 192.03 236.06 209.43 271.49 213.6 271.49 230.84 236.17 230.84 271.49 235.06 271.49 235.06 228.62 230.06 228.62 211.51 266.8"/><path class="cls-6" d="M245.05,228.25a3.13,3.13,0,1,0,3.13,3.13A3.13,3.13,0,0,0,245.05,228.25Z"/><rect class="cls-6" x="242.94" y="241.01" width="4.22" height="30.48"/><path class="cls-6" d="M253.92,250c0,11.93,9.69,21.72,22.29,21.72v-4.17c-10.31,0-18.07-7.92-18.07-17.55a17.69,17.69,0,0,1,18.07-17.61v-4.17A21.92,21.92,0,0,0,253.92,250Z"/><polygon class="cls-6" points="306.88 247.21 286.1 247.21 286.1 228.62 281.88 228.62 281.88 271.49 286.1 271.49 286.1 251.22 306.88 251.22 306.88 271.49 311.1 271.49 311.1 228.62 306.88 228.62 306.88 247.21"/><path class="cls-6" d="M338.66,227.73a22.27,22.27,0,1,0,21.57,27.92h-4.48a18,18,0,0,1-35.22-4.79h40.32C361.63,238.36,351.32,227.73,338.66,227.73ZM320.84,247a18,18,0,0,1,35.58,0Z"/><polygon class="cls-6" points="369.34 228.62 365.12 228.62 365.12 271.49 385.12 271.49 385.12 267.43 369.34 267.43 369.34 228.62"/><polygon class="cls-6" points="393.56 228.62 389.34 228.62 389.34 271.49 409.34 271.49 409.34 267.43 393.56 267.43 393.56 228.62"/><path class="cls-6" d="M429.55,227.73a22.27,22.27,0,1,0,21.57,27.92h-4.48a18,18,0,0,1-35.22-4.79h40.32C452.53,238.36,442.21,227.73,429.55,227.73ZM411.74,247a18,18,0,0,1,35.58,0Z"/></svg>