<svg id="Layer_1" data-name="Layer 1" xmlns="http://www.w3.org/2000/svg" width="460" height="90.52" viewBox="0 0 460 90.52"><defs><style>.cls-1{fill:#00b5af;}.cls-2{fill:#fff;}</style></defs><title>ellemichelle-logo-turquoise</title><rect class="cls-1" width="460" height="90.52"/><path class="cls-2" d="M46.52,22.49A22.77,22.77,0,1,0,68.57,51H64a18.44,18.44,0,0,1-36-4.9H69.21C70,33.36,59.46,22.49,46.52,22.49ZM28.31,42.2a18.4,18.4,0,0,1,36.37,0Z"/><polygon class="cls-2" points="77.88 23.4 73.57 23.4 73.57 67.23 94.02 67.23 94.02 63.07 77.88 63.07 77.88 23.4"/><polygon class="cls-2" points="102.64 23.4 98.33 23.4 98.33 67.23 118.78 67.23 118.78 63.07 102.64 63.07 102.64 23.4"/><path class="cls-2" d="M139.44,22.49a22.77,22.77,0,1,0,22,28.55H156.9a18.44,18.44,0,0,1-36-4.9h41.22C162.92,33.36,152.38,22.49,139.44,22.49ZM121.22,42.2a18.4,18.4,0,0,1,36.37,0Z"/><polygon class="cls-2" points="190.66 62.43 171.54 23.4 166.43 23.4 166.43 67.23 170.74 67.23 170.74 31.02 188.53 67.23 192.79 67.23 210.41 31.12 210.41 67.23 214.73 67.23 214.73 23.4 209.62 23.4 190.66 62.43"/><path class="cls-2" d="M224.94,23a3.2,3.2,0,1,0,3.2,3.19A3.19,3.19,0,0,0,224.94,23Z"/><rect class="cls-2" x="222.79" y="36.07" width="4.31" height="31.15"/><path class="cls-2" d="M234,45.29c0,12.19,9.9,22.2,22.79,22.2V63.23c-10.55,0-18.48-8.09-18.48-17.94a18.08,18.08,0,0,1,18.48-18V23A22.4,22.4,0,0,0,234,45.29Z"/><polygon class="cls-2" points="288.15 42.41 266.9 42.41 266.9 23.4 262.59 23.4 262.59 67.23 266.9 67.23 266.9 46.51 288.15 46.51 288.15 67.23 292.46 67.23 292.46 23.4 288.15 23.4 288.15 42.41"/><path class="cls-2" d="M320.63,22.49a22.77,22.77,0,1,0,22,28.55h-4.58a18.44,18.44,0,0,1-36-4.9h41.21C344.11,33.36,333.57,22.49,320.63,22.49ZM302.42,42.2a18.4,18.4,0,0,1,36.37,0Z"/><polygon class="cls-2" points="351.99 23.4 347.68 23.4 347.68 67.23 368.12 67.23 368.12 63.07 351.99 63.07 351.99 23.4"/><polygon class="cls-2" points="376.75 23.4 372.44 23.4 372.44 67.23 392.88 67.23 392.88 63.07 376.75 63.07 376.75 23.4"/><path class="cls-2" d="M413.54,22.49a22.77,22.77,0,1,0,22,28.55H431a18.44,18.44,0,0,1-36-4.9h41.22C437,33.36,426.48,22.49,413.54,22.49ZM395.33,42.2a18.4,18.4,0,0,1,36.37,0Z"/></svg>