<svg id="Layer_1" data-name="Layer 1" xmlns="http://www.w3.org/2000/svg" width="500" height="500" viewBox="0 0 500 500"><defs><style>.cls-1{fill:#f2f2f2;}.cls-2{fill:#020202;}.cls-3{fill:#fff;}</style></defs><title>ellemichelle-logo-bw</title><rect class="cls-1" width="500" height="500"/><rect class="cls-2" x="50" y="210.64" width="400" height="78.71"/><path class="cls-3" d="M90.45,230.34a19.66,19.66,0,1,0,19,24.82h-3.7a16.18,16.18,0,0,1-31.55-4.39v-.14h35.85a18.79,18.79,0,0,0-5.19-14A19.84,19.84,0,0,0,90.45,230.34Zm16,17.14h-32v-.16a16,16,0,0,1,16-13.69c8,0,15,6,15.93,13.69Z"/><polygon class="cls-3" points="117.58 231.13 114.11 231.13 114.11 268.96 131.62 268.96 131.62 265.63 117.58 265.63 117.58 231.13"/><polygon class="cls-3" points="139.11 231.13 135.64 231.13 135.64 268.96 153.15 268.96 153.15 265.63 139.11 265.63 139.11 231.13"/><path class="cls-3" d="M171.25,230.34a19.66,19.66,0,1,0,19,24.82h-3.7A16.17,16.17,0,0,1,155,250.77v-.14h35.85a18.82,18.82,0,0,0-5.18-14A19.86,19.86,0,0,0,171.25,230.34Zm15.95,17.14H155.25v-.16a16,16,0,0,1,16-13.69c8,0,15,6,15.93,13.69Z"/><polygon class="cls-3" points="215.79 265.25 199.08 231.13 194.86 231.13 194.86 268.96 198.33 268.96 198.33 237.61 198.6 237.55 214.03 268.96 217.56 268.96 232.84 237.65 233.11 237.71 233.11 268.96 236.58 268.96 236.58 231.13 232.36 231.13 215.79 265.25"/><path class="cls-3" d="M245.6,230.81a2.64,2.64,0,1,0,2.64,2.64h0A2.64,2.64,0,0,0,245.6,230.81Z"/><rect class="cls-3" x="243.87" y="242.15" width="3.47" height="26.81"/><path class="cls-3" d="M253.62,250c0,10.71,8.57,19.1,19.54,19.17v-3.42a15.77,15.77,0,1,1-.21-31.54h.21v-3.42C262.19,230.88,253.62,239.29,253.62,250Z"/><polygon class="cls-3" points="300.7 247.66 281.95 247.66 281.95 231.13 278.48 231.13 278.48 268.96 281.95 268.96 281.95 250.95 300.7 250.95 300.7 268.96 304.18 268.96 304.18 231.13 300.7 231.13 300.7 247.66"/><path class="cls-3" d="M328.81,230.34a19.66,19.66,0,1,0,19,24.82h-3.7a15.89,15.89,0,0,1-15.29,11.16,16.06,16.06,0,0,1-16.26-15.55v-.14H348.4a18.82,18.82,0,0,0-5.18-14A19.84,19.84,0,0,0,328.81,230.34Zm15.95,17.14H312.81v-.16a16,16,0,0,1,16-13.69c8,0,15,6,15.93,13.69Z"/><polygon class="cls-3" points="355.94 231.13 352.46 231.13 352.46 268.96 369.97 268.96 369.97 265.63 355.94 265.63 355.94 231.13"/><polygon class="cls-3" points="377.47 231.13 374 231.13 374 268.96 391.5 268.96 391.5 265.63 377.47 265.63 377.47 231.13"/><path class="cls-3" d="M424,236.59a19.67,19.67,0,1,0,4.58,18.57h-3.7a16.17,16.17,0,0,1-31.54-4.39v-.14H429.2A18.79,18.79,0,0,0,424,236.59Zm-30.4,10.89v-.16a16,16,0,0,1,16-13.69c8,0,15,6,15.93,13.69v.16Z"/></svg>