<svg id="Layer_1" data-name="Layer 1" xmlns="http://www.w3.org/2000/svg" width="500" height="93.91" viewBox="0 0 500 93.91"><defs><style>.cls-1{fill:#f05662;}</style></defs><title>ellemichelle-tagline</title><path class="cls-1" d="M24.07,79.13c-3.77.33-6.92-1.22-9.65-4.31-3-3.38-2.72-4.83-1.78-4.91.79-.07,2-.1,3.08-.19C28.14,68.63,37.64,63,37.22,58.25c-.18-2.13-1.63-3.27-6-5.5-3.73-1.89-7.29-3.72-7.68-8.12C23,38.81,28.22,32.4,36.07,26.09c7.55-6.13,16-10.91,20.81-11.33,2.83-.25,4.76,1,7,3.67,2,2.36,2.07,3.62,1.3,3.93a115.38,115.38,0,0,0-22,12.54c-7.52,5.49-11,9.21-10.71,12.59.16,1.81,2,3.23,4.11,4.31,3.65,1.9,8.44,4.1,8.85,8.82C46.16,69,33.82,78.28,24.07,79.13Z"/><path class="cls-1" d="M71.07,69.23a6,6,0,0,1-2-7c1.59-4.42,5.19-9.49,7-13.85a91.49,91.49,0,0,0-12.55,13.3c-.66,1.49-1.4,3-2.06,4.54-2.05,4.62-2.6,5.54-3.78,5.64A12.45,12.45,0,0,1,53.24,71c-2.61-.88-3.65-1.9-3.8-3.55-.18-2.12,1.28-5.26,4.69-11.66,7-13.14,15.5-28.46,21.48-39.85.69-1.17,1-1.19,1.73-1a20.49,20.49,0,0,1,5,1.54c1.91,1,2,5.13-2.25,12.33-2.91,4.84-6.39,11.25-11.36,21.51C74,45.83,78.87,42.4,81,42.21a5.2,5.2,0,0,1,3.68,1.26c2,1.49,2.23,2.9,1.29,5.68C84.52,53.55,79.24,62,79,65.84c3.68-1.35,7.64-5,12.78-13.32l.21-.34c.49-.75.64-.85.89-.63l.26.22a1,1,0,0,1,.29,1.48l-.2.41C88.54,63.27,81,70.74,76.31,71.15,74.27,71.33,73,70.73,71.07,69.23Z"/><path class="cls-1" d="M92.47,68.31a9.1,9.1,0,0,1-3.1-2.82c-1.84-2.85-1-6.49,3.14-13A108.54,108.54,0,0,0,99.7,39.55c.79-1.82,1-2.08,2.06-1.85,2.19.6,4.59.87,5.66,1.33,2.06.85,2.58,3.18.22,7-3.34,5.29-8.62,13.75-9,18.3,2.95-.73,6-3.29,8.54-6.53.15-.17.38-.19.48,0A5.46,5.46,0,0,1,107.9,59a2.37,2.37,0,0,1-.5,1.55c-1.79,3.16-5.74,8.66-10,9A8.61,8.61,0,0,1,92.47,68.31Zm13.82-37.66a93.48,93.48,0,0,0,5.31-9.1c.2-.42.35-.51.76-.39A8.86,8.86,0,0,1,117,24.08c.63.9.63,1.77-.22,3a33.37,33.37,0,0,1-3.61,4,6.94,6.94,0,0,1-4.08,1.39,5.91,5.91,0,0,1-2.81-.47C105.91,31.71,105.87,31.24,106.29,30.65Z"/><path class="cls-1" d="M112.82,79.05c-.94.09-1.5-.9-3.09-1.87-2-1.25-3.66-2-3.84-4-.34-3.85,4.47-14.18,9-22.66,1.7-3.24,3.42-6.24,5-9.15-1.8.24-2.46,0-2.91-.62a8.47,8.47,0,0,1-1-2.13c-.24-.93.13-1.28.75-1.41,1.64-.31,3.74-.73,6.17-1.1a195.92,195.92,0,0,1,13.85-20.94c4-5.27,5.9-6,7.16-6.1a6.66,6.66,0,0,1,3.14.6,3.27,3.27,0,0,1,2.31,2.89c.16,1.73-1.61,6.87-3.69,11.18a3.48,3.48,0,0,1-2.69,1.9c-.94.08-1.49.21-2.35.28a1.62,1.62,0,0,1-.65-.1c-1.88,2.07-3.37,4.89-5.28,8.47L144.3,33c2.75-4.76,5.44-9.35,6.91-12.41,1.14-2.4,1.28-2.65,2.07-2.64,1.11,0,2.91.61,5.35,2.22,1.6,1.13,1.85,3,.31,6.32-.67,1.4-1.62,3.15-2.58,4.9,3.45-.46,6.51-.81,8.79-1,1.26-.11,1.58,0,1.47.59a5.13,5.13,0,0,1-.77,2c-.58.68-1,.87-3.6,1.5-2.17.51-5.21,1.09-8.41,1.68-4.71,8.66-10.44,17.4-10.34,23.1l.47,0c2.36-.21,6.75-1.7,14.42-8.24.29-.26.63,0,.5.36a13.44,13.44,0,0,1-1.21,3.35,14.69,14.69,0,0,1-2.58,3.16c-2.92,2.79-8.35,6.91-13.77,7.39a9.32,9.32,0,0,1-3.55-.64,10.56,10.56,0,0,1-4.89-4.33c-1.5-2.64-.58-5.74,2.4-11.47,1.36-2.65,3.63-6.49,6.05-10.59-3.29.45-6.49,1-9.47,1.38-13.66,25.93-16.26,33.36-17.49,37.36C114,78.32,113.45,79,112.82,79.05Z"/><path class="cls-1" d="M161.56,84.46a8.28,8.28,0,0,1-3.72-6.26,9.27,9.27,0,0,1,2.8-7c4.36-4.58,13.3-7.42,23.88-10.64,1.72-2.93,3.35-6,4.82-9.15-5.59,6.68-8.15,8.25-10.75,8.47a5.54,5.54,0,0,1-3.73-1c-2.09-1.16-2.42-2.24-1.49-6.13,1.35-5.35,6.22-15.84,8-21,.12-.41.35-.59,1-.64a16.84,16.84,0,0,1,3.44.33c3.3.58,4.13,1.94,3.58,4.68-.49,2.58-2.66,8.48-4.29,14.32,4.12-2.73,9.08-8.48,13-17.14.73-1.57,1.24-2.17,2.18-2.25a15.16,15.16,0,0,1,4.84,1c1.32.6,1.62,1.28,1.22,3.06-.71,3.63-4.85,12.47-9,20.36a44.49,44.49,0,0,0,14.12-13.44l.2-.33c.42-.67.65-.77.9-.63l.33.2a1.12,1.12,0,0,1,.22,1.57l-.21.33c-4.58,7.38-9.32,13-18.51,17.63-9.76,18-20.8,24.88-26.31,25.37A9,9,0,0,1,161.56,84.46Zm19.69-18.69c-8.91,3.32-12.69,5.39-15.52,8.34-2.47,2.59-2.91,4.85-2.49,6.87a3.17,3.17,0,0,0,.87,0C168.67,80.59,174.44,75.88,181.25,65.77Z"/><path class="cls-1" d="M212.27,55.37c-3.79-3.47-5-9.23-.69-16.1,3.47-5.62,9.7-11.39,15-11.86,2.59-.23,5.8,1.08,7,2.56,2.2.68,3.43,3,3.67,5.78a13.39,13.39,0,0,1,0,1.9c5.16-.84,8.56-3.6,11.65-7.28l.29-.34c.57-.68.81-.63,1.08-.33l.18.22a1,1,0,0,1,0,1.34l-.28.43c-2.45,3.7-7.28,8.24-13.52,9.34a26.49,26.49,0,0,1-1.79,5c-3.2,6.86-8.56,11.69-14.62,12.22A10,10,0,0,1,212.27,55.37Zm7.38-2.7c5.15-1.8,9.95-6.66,12.54-11.56-3.38-.5-4.9-2.58-5.09-4.71a39.47,39.47,0,0,0-5.76,8.43C219.84,47.66,219.05,50.42,219.65,52.67Zm13.9-15a10.63,10.63,0,0,0,.34-3.36c-.1-1.1-.57-1.93-1.29-2.1a10.68,10.68,0,0,0-2.27,1.3c0,.16,0,.4,0,.72A3.62,3.62,0,0,0,233.55,37.66Z"/><path class="cls-1" d="M260.37,45.3c-4,6.05-8.08,10-11.46,10.28a9,9,0,0,1-5.12-1.46c-2.51-1.45-3.35-3-3.53-4.92-.21-2.44.94-5.63,3.65-10,4.45-7.13,6.93-11.3,7.39-12.45s.89-1.59,1.91-1.68a25.61,25.61,0,0,1,5.83.44c3.07.77,2.71,3.89,1.24,7-3.82,7.94-6.92,11.54-8.38,15.71,3.25-.92,8.92-5.85,14.6-19.74.39-1,.76-1.34,1.39-1.39a46.77,46.77,0,0,1,5.15,0c3.42.18,4.24,1.38,3,4.42s-5.61,11-5.76,15.64c2.88-.57,6.45-3.26,11.38-11.22l.21-.34c.49-.75.64-.85.89-.63l.26.22a1,1,0,0,1,.29,1.47l-.2.42c-2.36,4.8-9.1,14.74-15.39,15.3a7.57,7.57,0,0,1-4.3-1.22C260.75,49.63,260,47.71,260.37,45.3Z"/><path class="cls-1" d="M280.74,50.73c-1.92-1.1-2.8-2-2.95-3.79-.23-2.67,1.24-5.73,4.58-11.09a133,133,0,0,0,7.94-14.33c.19-.49.57-.68,1.52-.69a11.85,11.85,0,0,1,4.35.73c1.15.54,2,1.57,1.39,5.11a78.16,78.16,0,0,1,11.91-9.76,8.54,8.54,0,0,1,2.41-1.4c.63,0,1,1.18,1.05,2s-.44,1.31-1.33,2.1c-6.92,6-13.85,13.81-21.81,27-3,4.94-3.41,5.45-4.66,5.56A8,8,0,0,1,280.74,50.73Z"/><path class="cls-1" d="M329.15,49.66A10.63,10.63,0,0,1,323,52.43a9.31,9.31,0,0,1-6.59-1.89c-1.52-1.13-1.94-2.28-1.17-2.59,4.43-1.89,10.87-7.05,10.53-11-.25-2.84-4.92-3.62-5.33-8.34-.64-7.31,7.85-9,12.75-12.76.44-.44,1.33-.27,2.64,1.12a8.77,8.77,0,0,1,2.64,4.84c.24,2.75-2.05,4.69-7.08,7-2.82,1.27-4.33,2.12-4.19,3.69.22,2.6,5.11,4.15,5.58,9.42C333,44.5,331.86,47.21,329.15,49.66Z"/><path class="cls-1" d="M341.39,44.63c-4.25-4.15-5.2-9.53-1.1-16.15S352.43,16,357.78,15.54a7.91,7.91,0,0,1,5.3,1.68c3.19,2.09,2.85,3.63,1.54,4.06-10.06,3.65-18.16,13.4-18.3,19.91a8.27,8.27,0,0,0,4,.44c4.09-.36,12.36-5.44,17.15-13.23l.2-.34c.49-.75.64-.84.9-.63l.26.22a1,1,0,0,1,.28,1.48l-.2.41c-3.43,7-12.66,17.44-19.81,18.06C345.56,47.91,344,47.1,341.39,44.63Z"/><path class="cls-1" d="M371.84,44A13.64,13.64,0,0,1,365.37,38c-1.41-2.57-.73-7.46,2.26-12.32,3.89-6.2,11.18-11.6,16.53-12.06,2.13-.19,3.84.37,6.33,3.48,1.86,1.35,3,2.67,3.17,4.48s-1.28,4.47-6,8.06a56,56,0,0,1-12.27,6.46,12.21,12.21,0,0,0,.1,2.92,10.66,10.66,0,0,0,3.34.19c6.3-.55,13.48-5.38,18.48-13.43l.21-.33c.49-.76.64-.85.9-.63l.25.21a1,1,0,0,1,.29,1.48l-.2.41c-4.36,9-14,16.92-21.84,17.61A10.44,10.44,0,0,1,371.84,44Zm16.8-24.46c-4.77,1.61-10,7.06-12.2,12.72a40.58,40.58,0,0,0,8.39-5.49C388.07,23.9,389,21.76,388.64,19.49Z"/><path class="cls-1" d="M400.32,42.49A6.94,6.94,0,0,1,396.15,41a5.8,5.8,0,0,1-2.91-4.27c-.2-2.28,1.82-6.42,4.74-11,4.39-7,7.57-12.23,8.43-14.13a1.14,1.14,0,0,1,1-.8c1.66-.15,4.6.94,6.74,2.66,1.36,1.14,2.1,2.27,1.54,4.06,4-2.57,7.3-4.36,9-4.51a5.42,5.42,0,0,1,3.83,1.24c1.95,1.5,2.16,2.91,1.13,5.69-1.53,4.26-5.94,10.9-6.56,14.68,3.62-1.19,7.77-4.48,12.56-12.19l.21-.34c.49-.75.64-.85.9-.63l.25.21a1,1,0,0,1,.29,1.48l-.2.42c-2.49,5.05-10,15.61-16.73,16.2a6.78,6.78,0,0,1-5.26-2.15c-2.07-2-3.05-4.09-2-7,1.61-4.34,5.22-8.3,7.34-12.21a144.05,144.05,0,0,0-10.84,10.22C406.16,35,403.9,39,402.18,41.05,401.31,42.08,400.87,42.44,400.32,42.49Z"/><path class="cls-1" d="M435.8,34.94c-3-3-4.5-7.93.58-16,3.62-5.7,10.39-10.81,15.5-11.26a7,7,0,0,1,4.13,1,7.72,7.72,0,0,1,2.71,2,6.55,6.55,0,0,1,3.08,4.41c.21,2.36-1,4.76-6,8.6a62.86,62.86,0,0,1-12.11,6.61,4.74,4.74,0,0,0,.55,3.52,7.78,7.78,0,0,0,2.39.11c4.48-.4,9.09-2.07,14.27-7.12.3-.26.45-.35.6-.37.32,0,.43.28.47.75a4.68,4.68,0,0,1-.77,3,23.57,23.57,0,0,1-16.16,9.11C442.07,39.55,439.53,38.66,435.8,34.94Zm20.9-22c-4.24,1.33-9.55,7.66-11.83,13.32a45.4,45.4,0,0,0,8.47-5.49C456.07,18.43,457.73,15.67,456.7,13Z"/></svg>