<svg id="logos" xmlns="http://www.w3.org/2000/svg" width="125.5" height="130" viewBox="0 0 125.5 130"><defs><style>.cls-1{fill:#ea961c;}.cls-2{fill:#2b74b7;}</style></defs><title>submark full color</title><g id="Submark_full_color" data-name="Submark full color"><path class="cls-1" d="M98.31,19.63H27.19a9.71,9.71,0,0,0-9.7,9.7v71.13a9.71,9.71,0,0,0,9.7,9.69H38.3v-5.32H27.19a4.38,4.38,0,0,1-4.38-4.37V29.33A4.38,4.38,0,0,1,27.19,25H98.31a4.38,4.38,0,0,1,4.38,4.37v71.13a4.38,4.38,0,0,1-4.38,4.37H87.2v5.32H98.31a9.71,9.71,0,0,0,9.7-9.69V29.33A9.71,9.71,0,0,0,98.31,19.63Z"/><polygon class="cls-2" points="58.46 51.66 58.46 43.34 31.87 43.34 31.87 81.71 58.67 81.71 58.67 73.45 41.3 73.45 41.3 66.31 56.86 66.31 56.86 58.53 41.3 58.53 41.3 51.66 58.46 51.66"/><polygon class="cls-2" points="62.72 81.71 93.58 81.71 93.58 73.45 75.46 73.45 93.63 47.02 93.63 43.34 63.52 43.34 63.52 51.66 79.35 51.66 62.72 75.8 62.72 81.71"/><path class="cls-2" d="M46.05,95.82H41.8v14.55h4c4.91,0,7.46-2.12,7.46-7.25C53.22,98.21,50.71,95.82,46.05,95.82Zm.08,12.87H43.68V97.52h2.45c3.61,0,5.11,2,5.11,5.6S49.74,108.69,46.13,108.69Z"/><path class="cls-2" d="M65.66,100.17c0-2.63-1.59-4.35-5-4.35H55.89v14.55h1.87v-5.66H60a8.48,8.48,0,0,0,1.49-.12l3,5.78h2.06l-3.23-6.24A4.05,4.05,0,0,0,65.66,100.17Zm-5.25,3H57.76V97.46h2.79c2.22,0,3.21.93,3.21,2.75S62.67,103.14,60.41,103.14Z"/><polygon class="cls-2" points="80.45 95.82 76.33 107.56 72.29 95.82 70.17 95.82 68.71 110.37 70.51 110.37 71.64 99.14 75.58 110.37 77.1 110.37 81.04 99.14 82.21 110.37 83.97 110.37 82.51 95.82 80.45 95.82"/></g></svg>