<svg id="logos" xmlns="http://www.w3.org/2000/svg" width="6.4in" height="3.1in" viewBox="0 0 460.78 223.28"><defs><style>.cls-1{fill:#ea961c;}.cls-2{fill:#2b74b7;}.cls-3{fill:#0076be;}</style></defs><title>ezdrm-logo-tagline</title><g id="Full_color_with_tagline" data-name="Full color with tagline"><path class="cls-1" d="M201.66,189.81a9.62,9.62,0,0,1-9.61,9.61H35.71a9.62,9.62,0,0,1-9.61-9.61V33.47a9.62,9.62,0,0,1,9.61-9.61H192.05a9.62,9.62,0,0,1,9.61,9.61V57.9h11.71V33.47a21.34,21.34,0,0,0-21.32-21.32H35.71A21.34,21.34,0,0,0,14.39,33.47V189.81a21.34,21.34,0,0,0,21.32,21.32H192.05a21.34,21.34,0,0,0,21.32-21.32V165.38H201.66Z"/><polygon class="cls-2" points="104.45 87.74 104.45 69.47 45.99 69.47 45.99 153.81 104.92 153.81 104.92 135.66 66.73 135.66 66.73 119.96 100.93 119.96 100.93 102.86 66.73 102.86 66.73 87.74 104.45 87.74"/><polygon class="cls-2" points="181.76 69.47 115.58 69.47 115.58 87.74 150.37 87.74 113.82 140.81 113.82 153.81 181.65 153.81 181.65 135.66 141.82 135.66 181.76 77.55 181.76 69.47"/><path class="cls-2" d="M201.91,153.81h23c28.46,0,43.22-12.3,43.22-42,0-28.47-14.52-42.29-41.58-42.29h-24.6Zm10.89-74.5H227c21,0,29.63,11.48,29.63,32.45,0,21.2-8.66,32.33-29.63,32.33H212.8Z"/><path class="cls-2" d="M326.32,117.62c9.6-4.69,13.94-12.42,13.94-23,0-15.23-9.26-25.19-29.29-25.19H283.56v84.34h10.9V121h12.76a48.87,48.87,0,0,0,8.67-.7l17.22,33.5h11.95Zm-16.52-5.75H294.46V79h16.16c12.89,0,18.63,5.39,18.63,15.93C329.25,106,322.92,111.87,309.8,111.87Z"/><polygon class="cls-2" points="437.96 69.47 426.01 69.47 402.11 137.53 378.68 69.47 366.38 69.47 357.95 153.81 368.38 153.81 374.94 88.68 397.78 153.81 406.56 153.81 429.4 88.68 436.2 153.81 446.39 153.81 437.96 69.47"/><path class="cls-2" d="M228.91,165h-3.82v13.1h3.57c4.42,0,6.72-1.91,6.72-6.53C235.38,167.13,233.12,165,228.91,165Zm.08,11.59h-2.2V166.52H229c3.26,0,4.6,1.78,4.6,5S232.25,176.58,229,176.58Z"/><rect class="cls-2" x="237.8" y="168.54" width="1.6" height="9.55"/><path class="cls-3" d="M238.62,165a1,1,0,0,0-1.05.95.94.94,0,0,0,1.05.89.92.92,0,0,0,1-.89A1,1,0,0,0,238.62,165Z"/><path class="cls-2" d="M246.1,180.51a9,9,0,0,1-2.95-.53l-.3,1.33a9.4,9.4,0,0,0,3.33.6c2.82,0,4.16-1,4.16-4.15v-9.22H249l-.09,1.38a4,4,0,0,0-3.06-1.6c-2.76,0-4,2.2-4,5.06s1.22,4.87,3.88,4.87a3.92,3.92,0,0,0,3.13-1.47v.89C248.8,179.64,248.25,180.51,246.1,180.51Zm2.64-5a3.75,3.75,0,0,1-2.69,1.37c-1.82,0-2.57-1.44-2.57-3.55s.88-3.52,2.62-3.52a3.55,3.55,0,0,1,2.64,1.55Z"/><path class="cls-3" d="M254,165a1,1,0,0,0-1.06.95,1,1,0,0,0,1.06.89.92.92,0,0,0,1-.89A1,1,0,0,0,254,165Z"/><rect class="cls-2" x="253.17" y="168.54" width="1.6" height="9.55"/><path class="cls-2" d="M259.65,178.31a4.54,4.54,0,0,0,1.66-.31l-.19-1.18a2.33,2.33,0,0,1-.85.16c-.44,0-.73-.18-.73-.82v-6.31h1.55v-1.31h-1.55V165.9h-1.36l-.2,2.65-1.22.3v1H258v6.6C258,177.71,258.54,178.31,259.65,178.31Z"/><path class="cls-2" d="M266.66,168.32a5.49,5.49,0,0,0-3.66,1.42l.75,1a4.4,4.4,0,0,1,2.82-1.06,1.85,1.85,0,0,1,2,2.08v.91a10.13,10.13,0,0,0-1.49-.11c-3.52,0-4.43,1.6-4.43,3a2.61,2.61,0,0,0,2.88,2.77,3.32,3.32,0,0,0,3.18-1.84l.15,1.62h1.31v-6.41C270.19,169.3,268.81,168.32,266.66,168.32Zm1.93,5.9A2.9,2.9,0,0,1,266,177c-1.13,0-1.72-.55-1.72-1.46,0-1.24.9-1.82,2.86-1.82a9.19,9.19,0,0,1,1.46.09Z"/><rect class="cls-2" x="272.83" y="164.99" width="1.6" height="13.1"/><path class="cls-2" d="M286,172.89l2.68,5.2h1.85l-2.91-5.62a3.65,3.65,0,0,0,2.17-3.57c0-2.37-1.44-3.91-4.55-3.91H281v13.1h1.69V173h2A7.86,7.86,0,0,0,286,172.89Zm-3.33-6.43h2.51c2,0,2.9.84,2.9,2.48s-1,2.64-3,2.64h-2.39Z"/><rect class="cls-2" x="292.53" y="168.54" width="1.6" height="9.55"/><path class="cls-3" d="M293.35,165a1,1,0,0,0-1.05.95.94.94,0,0,0,1.05.89.92.92,0,0,0,1-.89A1,1,0,0,0,293.35,165Z"/><path class="cls-2" d="M303.6,169.92a4,4,0,0,0-3.06-1.6c-2.76,0-4,2.2-4,5.06s1.22,4.87,3.88,4.87a3.92,3.92,0,0,0,3.13-1.47v.89c0,2-.55,2.84-2.7,2.84a9,9,0,0,1-2.95-.53l-.3,1.33a9.4,9.4,0,0,0,3.33.6c2.82,0,4.16-1,4.16-4.15v-9.22h-1.38Zm-.13,5.55a3.75,3.75,0,0,1-2.69,1.37c-1.82,0-2.57-1.44-2.57-3.55s.88-3.52,2.62-3.52a3.55,3.55,0,0,1,2.64,1.55Z"/><path class="cls-2" d="M312.5,168.32a4.19,4.19,0,0,0-3.11,1.54V165h-1.6v13.1h1.6v-6.86a3.91,3.91,0,0,1,2.68-1.44c1.56,0,1.74,1.17,1.74,2.42v5.88h1.62v-6.26C315.43,169.63,314.52,168.32,312.5,168.32Z"/><path class="cls-2" d="M320.75,177c-.44,0-.73-.18-.73-.82v-6.31h1.55v-1.31H320V165.9h-1.36l-.2,2.65-1.22.3v1h1.2v6.6c0,1.26.58,1.86,1.69,1.86a4.46,4.46,0,0,0,1.66-.31l-.18-1.18A2.38,2.38,0,0,1,320.75,177Z"/><path class="cls-2" d="M327.34,172.56c-1.67-.44-2.31-.73-2.31-1.62s.69-1.33,1.84-1.33a4.21,4.21,0,0,1,2.71,1.09l.75-1a4.79,4.79,0,0,0-3.52-1.42c-2.07,0-3.45,1.05-3.45,2.78,0,1.51.92,2.24,3.09,2.79,1.77.43,2.22.76,2.22,1.65s-.75,1.42-2,1.42a5.15,5.15,0,0,1-3-1.22l-.75,1a5.55,5.55,0,0,0,3.88,1.55c2.2,0,3.64-1.11,3.64-2.95C330.4,173.83,329.49,173.12,327.34,172.56Z"/><polygon class="cls-2" points="346.56 164.99 342.85 175.56 339.21 164.99 337.3 164.99 335.99 178.09 337.61 178.09 338.63 167.97 342.18 178.09 343.55 178.09 347.09 167.97 348.15 178.09 349.73 178.09 348.42 164.99 346.56 164.99"/><path class="cls-2" d="M355.58,168.32a5.49,5.49,0,0,0-3.66,1.42l.75,1a4.4,4.4,0,0,1,2.82-1.06,1.85,1.85,0,0,1,2,2.08v.91a10.13,10.13,0,0,0-1.49-.11c-3.51,0-4.42,1.6-4.42,3a2.6,2.6,0,0,0,2.87,2.77,3.35,3.35,0,0,0,3.19-1.84l.14,1.62h1.31v-6.41C359.11,169.3,357.73,168.32,355.58,168.32Zm1.93,5.9a2.9,2.9,0,0,1-2.6,2.82c-1.13,0-1.71-.55-1.71-1.46,0-1.24.89-1.82,2.85-1.82a9.19,9.19,0,0,1,1.46.09Z"/><path class="cls-2" d="M366.4,168.32a4.15,4.15,0,0,0-3.17,1.62l-.11-1.4h-1.38v9.55h1.6v-6.86a3.94,3.94,0,0,1,2.71-1.46c1.15,0,1.71.79,1.71,2.46v5.86h1.62v-6.26C369.38,169.74,368.56,168.32,366.4,168.32Z"/><path class="cls-2" d="M375.5,168.32a5.49,5.49,0,0,0-3.66,1.42l.75,1a4.4,4.4,0,0,1,2.82-1.06,1.85,1.85,0,0,1,2,2.08v.91a10.13,10.13,0,0,0-1.49-.11c-3.52,0-4.43,1.6-4.43,3a2.61,2.61,0,0,0,2.88,2.77,3.32,3.32,0,0,0,3.18-1.84l.15,1.62H379v-6.41C379,169.3,377.65,168.32,375.5,168.32Zm1.93,5.9a2.9,2.9,0,0,1-2.6,2.82c-1.13,0-1.72-.55-1.72-1.46,0-1.24.9-1.82,2.86-1.82a9.19,9.19,0,0,1,1.46.09Z"/><path class="cls-2" d="M388.32,169.92a4,4,0,0,0-3.06-1.6c-2.77,0-4,2.2-4,5.06s1.22,4.87,3.87,4.87a3.91,3.91,0,0,0,3.13-1.47v.89c0,2-.54,2.84-2.69,2.84a9,9,0,0,1-2.95-.53l-.31,1.33a9.44,9.44,0,0,0,3.33.6c2.82,0,4.17-1,4.17-4.15v-9.22h-1.38Zm-.13,5.55a3.75,3.75,0,0,1-2.7,1.37c-1.82,0-2.56-1.44-2.56-3.55s.87-3.52,2.62-3.52a3.55,3.55,0,0,1,2.64,1.55Z"/><path class="cls-2" d="M396.45,168.32c-2.69,0-4.4,2-4.4,5,0,3.31,1.71,4.95,4.42,4.95a5.58,5.58,0,0,0,3.66-1.27l-.64-1.1a4.74,4.74,0,0,1-2.89,1c-2,0-2.8-1.32-2.84-3.14h6.52c0-.15,0-.68,0-.84C400.3,169.81,399,168.32,396.45,168.32Zm-2.69,4.17a2.77,2.77,0,0,1,2.71-2.84c1.7,0,2.24,1.29,2.26,2.84Z"/><path class="cls-2" d="M412.35,168.32a4.07,4.07,0,0,0-3.08,1.58,2.16,2.16,0,0,0-2.33-1.58,3.73,3.73,0,0,0-3,1.6l-.11-1.38h-1.39v9.55h1.6v-6.9a3.67,3.67,0,0,1,2.44-1.4c1.09,0,1.39.78,1.39,2v6.3h1.62v-6.93a3.5,3.5,0,0,1,2.36-1.37c1.09,0,1.42.75,1.42,2v6.35h1.6v-6.62C414.91,169.7,414.35,168.32,412.35,168.32Z"/><path class="cls-2" d="M421.49,168.32c-2.69,0-4.4,2-4.4,5,0,3.31,1.71,4.95,4.42,4.95a5.59,5.59,0,0,0,3.66-1.27l-.64-1.1a4.77,4.77,0,0,1-2.9,1c-2,0-2.8-1.32-2.83-3.14h6.51c0-.15,0-.68,0-.84C425.33,169.81,424,168.32,421.49,168.32Zm-2.69,4.17a2.76,2.76,0,0,1,2.71-2.84c1.69,0,2.24,1.29,2.25,2.84Z"/><path class="cls-2" d="M432.18,168.32a4.15,4.15,0,0,0-3.17,1.62l-.11-1.4h-1.38v9.55h1.6v-6.86a3.94,3.94,0,0,1,2.71-1.46c1.15,0,1.71.79,1.71,2.46v5.86h1.62v-6.26C435.16,169.74,434.34,168.32,432.18,168.32Z"/><path class="cls-2" d="M440.48,177c-.44,0-.73-.18-.73-.82v-6.31h1.55v-1.31h-1.55V165.9h-1.36l-.2,2.65-1.22.3v1h1.2v6.6c0,1.26.58,1.86,1.69,1.86a4.5,4.5,0,0,0,1.66-.31l-.18-1.18A2.38,2.38,0,0,1,440.48,177Z"/><path class="cls-2" d="M444.23,176.13a1.08,1.08,0,0,0-1.2,1.12,1.19,1.19,0,1,0,1.2-1.12Z"/><path class="cls-2" d="M229.75,192.57c-2.16-.73-3.29-1.11-3.29-2.57,0-1.31,1.09-2,2.55-2a4.65,4.65,0,0,1,3.31,1.49l.93-1A5.54,5.54,0,0,0,229,186.6c-2.42,0-4.26,1.22-4.26,3.59,0,2,1.09,2.87,3.91,3.73,2.35.71,3,1.25,3,2.58s-1.13,2.24-2.7,2.24a5.83,5.83,0,0,1-3.74-1.69l-.93,1.09a6.3,6.3,0,0,0,4.67,2c2.66,0,4.46-1.46,4.46-3.82C233.37,194.37,232.39,193.44,229.75,192.57Z"/><rect class="cls-2" x="235.71" y="190.39" width="1.6" height="9.55"/><path class="cls-2" d="M236.53,186.87a1,1,0,0,0-1.06.95,1,1,0,0,0,1.06.89.91.91,0,0,0,1-.89A.94.94,0,0,0,236.53,186.87Z"/><path class="cls-2" d="M250,190.17a4.07,4.07,0,0,0-3.08,1.58,2.16,2.16,0,0,0-2.33-1.58,3.73,3.73,0,0,0-3,1.6l-.11-1.38h-1.39v9.55h1.61V193a3.62,3.62,0,0,1,2.43-1.4c1.1,0,1.39.78,1.39,2v6.3h1.62V193a3.5,3.5,0,0,1,2.36-1.37c1.09,0,1.42.75,1.42,2v6.35h1.6v-6.62C252.54,191.55,252,190.17,250,190.17Z"/><path class="cls-2" d="M259.92,190.17a4,4,0,0,0-3.24,1.62l-.13-1.4h-1.38v13.19h1.6v-4.77a3.81,3.81,0,0,0,3,1.35c2.67,0,4-2,4-5S262.4,190.17,259.92,190.17Zm-.53,8.53a3.48,3.48,0,0,1-2.62-1.36v-4.17a4,4,0,0,1,2.86-1.57c1.53,0,2.38,1.26,2.38,3.59S261,198.7,259.39,198.7Z"/><rect class="cls-2" x="266.02" y="186.84" width="1.6" height="13.1"/><path class="cls-2" d="M271.27,186.87a1,1,0,0,0-1.06.95,1,1,0,0,0,1.06.89.91.91,0,0,0,1-.89A.94.94,0,0,0,271.27,186.87Z"/><rect class="cls-2" x="270.45" y="190.39" width="1.6" height="9.55"/><path class="cls-2" d="M276.82,189.11c0-.94.49-1.25,1.05-1.25a3.07,3.07,0,0,1,.86.12l.09-1.22a5.34,5.34,0,0,0-1.31-.16c-1.64,0-2.29,1.11-2.29,2.6v1.26l-1.13.22v1h1.13v8.26h1.6v-8.26h3.67v8.26h1.61v-9.55h-5.28Z"/><path class="cls-2" d="M281.31,186.84a1,1,0,1,0,0,1.94,1,1,0,1,0,0-1.94Z"/><path class="cls-2" d="M288.85,190.17c-2.69,0-4.4,2-4.4,5,0,3.31,1.71,4.95,4.42,4.95a5.55,5.55,0,0,0,3.66-1.28l-.64-1.09a4.8,4.8,0,0,1-2.89,1c-2,0-2.8-1.33-2.84-3.15h6.51c0-.14,0-.67,0-.83C292.69,191.66,291.35,190.17,288.85,190.17Zm-2.69,4.16a2.76,2.76,0,0,1,2.71-2.83c1.69,0,2.24,1.29,2.26,2.83Z"/><path class="cls-2" d="M301.41,191.59a3.74,3.74,0,0,0-3-1.42c-2.46,0-4,1.91-4,5s1.24,5,3.91,5a3.93,3.93,0,0,0,3.13-1.51l.11,1.29H303v-13.1h-1.61Zm0,5.6a3.45,3.45,0,0,1-2.62,1.51c-2,0-2.64-1.74-2.64-3.53,0-2.33,1-3.53,2.46-3.53a3.67,3.67,0,0,1,2.8,1.6Z"/><path class="cls-2" d="M306.59,198a1.08,1.08,0,0,0-1.2,1.13,1.18,1.18,0,1,0,1.2-1.13Z"/></g></svg>