<svg id="logos" xmlns="http://www.w3.org/2000/svg" width="500" height="400" viewBox="0 0 500 400"><defs><style>.cls-1{fill:#ea961c;}.cls-2{fill:#fff;}</style></defs><title>Artboard 1</title><rect class="cls-1" width="500" height="400"/><g id="Single_color_white_with_tagline" data-name="Single color (white) with tagline"><path class="cls-2" d="M229.52,255.74a6.86,6.86,0,0,1-6.85,6.85H111.19a6.85,6.85,0,0,1-6.85-6.85V144.26a6.85,6.85,0,0,1,6.85-6.85H222.67a6.86,6.86,0,0,1,6.85,6.85v17.42h8.34V144.26a15.21,15.21,0,0,0-15.19-15.2H111.19A15.22,15.22,0,0,0,96,144.26V255.74a15.22,15.22,0,0,0,15.2,15.2H222.67a15.21,15.21,0,0,0,15.19-15.2V238.32h-8.34Z"/><polygon class="cls-2" points="160.2 182.96 160.2 169.93 118.53 169.93 118.53 230.07 160.54 230.07 160.54 217.12 133.31 217.12 133.31 205.93 157.7 205.93 157.7 193.74 133.31 193.74 133.31 182.96 160.2 182.96"/><polygon class="cls-2" points="215.33 169.93 168.14 169.93 168.14 182.96 192.95 182.96 166.89 220.8 166.89 230.07 215.25 230.07 215.25 217.12 186.85 217.12 215.33 175.69 215.33 169.93"/><path class="cls-2" d="M229.69,230.07h16.37c20.3,0,30.82-8.77,30.82-30,0-20.29-10.35-30.15-29.65-30.15H229.69ZM237.46,177h10.11c14.95,0,21.13,8.18,21.13,23.13,0,15.12-6.18,23.06-21.13,23.06H237.46Z"/><path class="cls-2" d="M318.4,204.26c6.84-3.34,9.93-8.85,9.93-16.37,0-10.86-6.59-18-20.88-18H287.91v60.14h7.77V206.68h9.1a35.31,35.31,0,0,0,6.18-.5l12.28,23.89h8.52Zm-11.78-4.09H295.68V176.7H307.2c9.19,0,13.28,3.84,13.28,11.36C320.48,196,316,200.17,306.62,200.17Z"/><polygon class="cls-2" points="397.99 169.93 389.48 169.93 372.44 218.46 355.73 169.93 346.96 169.93 340.95 230.07 348.38 230.07 353.06 183.63 369.35 230.07 375.61 230.07 391.9 183.63 396.74 230.07 404.01 230.07 397.99 169.93"/><path class="cls-2" d="M249,238h-2.73v9.34h2.55c3.15,0,4.78-1.36,4.78-4.66C253.55,239.57,252,238,249,238Zm.05,8.26h-1.57v-7.17H249c2.32,0,3.28,1.27,3.28,3.59S251.32,246.3,249,246.3Z"/><rect class="cls-2" x="255.28" y="240.57" width="1.14" height="6.81"/><path class="cls-2" d="M255.87,238.06a.69.69,0,0,0-.75.68.67.67,0,0,0,.75.63.65.65,0,0,0,.74-.63A.67.67,0,0,0,255.87,238.06Z"/><path class="cls-2" d="M261.2,249.1a6.69,6.69,0,0,1-2.1-.37l-.22,1a6.84,6.84,0,0,0,2.37.42c2,0,3-.68,3-2.95v-6.58h-1l-.06,1a2.83,2.83,0,0,0-2.18-1.14c-2,0-2.87,1.57-2.87,3.61s.87,3.48,2.76,3.48a2.79,2.79,0,0,0,2.23-1.06v.64C263.12,248.48,262.73,249.1,261.2,249.1Zm1.88-3.59a2.65,2.65,0,0,1-1.92,1c-1.29,0-1.83-1-1.83-2.53s.63-2.5,1.87-2.5a2.52,2.52,0,0,1,1.88,1.1Z"/><path class="cls-2" d="M266.82,238.06a.69.69,0,0,0-.75.68.67.67,0,0,0,.75.63.65.65,0,0,0,.74-.63A.67.67,0,0,0,266.82,238.06Z"/><rect class="cls-2" x="266.24" y="240.57" width="1.14" height="6.81"/><path class="cls-2" d="M270.86,247.53a3,3,0,0,0,1.18-.22l-.13-.84a1.66,1.66,0,0,1-.61.12c-.31,0-.52-.13-.52-.59v-4.5h1.11v-.93h-1.11v-1.89h-1l-.14,1.9-.87.21v.71h.85v4.71C269.65,247.11,270.07,247.53,270.86,247.53Z"/><path class="cls-2" d="M275.86,240.41a3.94,3.94,0,0,0-2.61,1l.53.7a3.22,3.22,0,0,1,2-.75,1.32,1.32,0,0,1,1.44,1.48v.65a7.13,7.13,0,0,0-1.06-.08c-2.5,0-3.15,1.14-3.15,2.14a1.85,1.85,0,0,0,2.05,2,2.38,2.38,0,0,0,2.27-1.31l.1,1.16h.94v-4.57C278.38,241.11,277.39,240.41,275.86,240.41Zm1.37,4.21a2.07,2.07,0,0,1-1.85,2c-.81,0-1.22-.39-1.22-1,0-.88.64-1.3,2-1.3a5.72,5.72,0,0,1,1,.07Z"/><rect class="cls-2" x="280.26" y="238.04" width="1.14" height="9.34"/><path class="cls-2" d="M289.65,243.67l1.9,3.71h1.33l-2.08-4a2.61,2.61,0,0,0,1.54-2.54c0-1.69-1-2.79-3.24-2.79h-3v9.34h1.21v-3.63h1.41A5.68,5.68,0,0,0,289.65,243.67Zm-2.38-4.58h1.79c1.43,0,2.06.6,2.06,1.76s-.7,1.88-2.15,1.88h-1.7Z"/><rect class="cls-2" x="294.31" y="240.57" width="1.14" height="6.81"/><path class="cls-2" d="M294.89,238.06a.69.69,0,0,0-.75.68.67.67,0,0,0,.75.63.65.65,0,0,0,.74-.63A.67.67,0,0,0,294.89,238.06Z"/><path class="cls-2" d="M302.2,241.55a2.83,2.83,0,0,0-2.18-1.14c-2,0-2.87,1.57-2.87,3.61s.87,3.48,2.76,3.48a2.81,2.81,0,0,0,2.24-1.06v.64c0,1.4-.39,2-1.92,2a6.7,6.7,0,0,1-2.11-.37l-.22,1a6.86,6.86,0,0,0,2.38.42c2,0,3-.68,3-2.95v-6.58h-1Zm-.09,4a2.69,2.69,0,0,1-1.92,1c-1.3,0-1.83-1-1.83-2.53s.62-2.5,1.87-2.5a2.54,2.54,0,0,1,1.88,1.1Z"/><path class="cls-2" d="M308.55,240.41a3,3,0,0,0-2.22,1.1V238h-1.14v9.34h1.14v-4.89a2.74,2.74,0,0,1,1.91-1c1.11,0,1.24.83,1.24,1.73v4.19h1.16v-4.46C310.64,241.35,310,240.41,308.55,240.41Z"/><path class="cls-2" d="M314.43,246.59c-.31,0-.52-.13-.52-.59v-4.5H315v-.93h-1.1v-1.89h-1l-.15,1.9-.87.21v.71h.86v4.71c0,.9.41,1.32,1.21,1.32a3.06,3.06,0,0,0,1.18-.22l-.13-.84A1.66,1.66,0,0,1,314.43,246.59Z"/><path class="cls-2" d="M319.13,243.43c-1.2-.31-1.65-.51-1.65-1.15s.49-.95,1.31-.95a3,3,0,0,1,1.93.78l.53-.69a3.4,3.4,0,0,0-2.5-1c-1.48,0-2.46.75-2.46,2,0,1.07.66,1.59,2.2,2,1.26.31,1.58.55,1.58,1.18s-.53,1-1.44,1a3.72,3.72,0,0,1-2.15-.86l-.53.72a3.92,3.92,0,0,0,2.76,1.1c1.57,0,2.6-.79,2.6-2.1C321.31,244.34,320.66,243.84,319.13,243.43Z"/><polygon class="cls-2" points="332.83 238.04 330.19 245.57 327.59 238.04 326.23 238.04 325.29 247.38 326.45 247.38 327.18 240.16 329.71 247.38 330.68 247.38 333.21 240.16 333.96 247.38 335.09 247.38 334.16 238.04 332.83 238.04"/><path class="cls-2" d="M339.26,240.41a3.94,3.94,0,0,0-2.61,1l.53.7a3.23,3.23,0,0,1,2-.75,1.32,1.32,0,0,1,1.44,1.48v.65a7.37,7.37,0,0,0-1.07-.08c-2.5,0-3.15,1.14-3.15,2.14a1.85,1.85,0,0,0,2.05,2,2.38,2.38,0,0,0,2.27-1.31l.1,1.16h.94v-4.57C341.78,241.11,340.79,240.41,339.26,240.41Zm1.38,4.21a2.08,2.08,0,0,1-1.86,2c-.8,0-1.22-.39-1.22-1,0-.88.64-1.3,2-1.3a5.94,5.94,0,0,1,1,.07Z"/><path class="cls-2" d="M347,240.41a3,3,0,0,0-2.26,1.16l-.07-1h-1v6.81h1.14v-4.89a2.84,2.84,0,0,1,1.94-1c.81,0,1.21.56,1.21,1.75v4.18h1.16v-4.46C349.1,241.42,348.52,240.41,347,240.41Z"/><path class="cls-2" d="M353.46,240.41a3.94,3.94,0,0,0-2.61,1l.54.7a3.18,3.18,0,0,1,2-.75,1.32,1.32,0,0,1,1.44,1.48v.65a7.27,7.27,0,0,0-1.07-.08c-2.5,0-3.15,1.14-3.15,2.14a1.85,1.85,0,0,0,2.05,2,2.38,2.38,0,0,0,2.27-1.31l.11,1.16H356v-4.57C356,241.11,355,240.41,353.46,240.41Zm1.38,4.21a2.08,2.08,0,0,1-1.86,2c-.8,0-1.22-.39-1.22-1,0-.88.64-1.3,2-1.3a5.94,5.94,0,0,1,1,.07Z"/><path class="cls-2" d="M362.6,241.55a2.83,2.83,0,0,0-2.18-1.14c-2,0-2.87,1.57-2.87,3.61s.87,3.48,2.77,3.48a2.79,2.79,0,0,0,2.23-1.06v.64c0,1.4-.39,2-1.92,2a6.63,6.63,0,0,1-2.1-.37l-.22,1a6.8,6.8,0,0,0,2.37.42c2,0,3-.68,3-2.95v-6.58h-1Zm-.09,4a2.67,2.67,0,0,1-1.92,1c-1.3,0-1.83-1-1.83-2.53s.62-2.5,1.87-2.5a2.54,2.54,0,0,1,1.88,1.1Z"/><path class="cls-2" d="M368.4,240.41c-1.92,0-3.14,1.42-3.14,3.6,0,2.36,1.22,3.52,3.16,3.52a4,4,0,0,0,2.61-.9l-.46-.78a3.43,3.43,0,0,1-2.06.71c-1.42,0-2-.95-2-2.24h4.65c0-.11,0-.48,0-.6C371.14,241.48,370.18,240.41,368.4,240.41Zm-1.92,3a2,2,0,0,1,1.94-2c1.2,0,1.59.92,1.61,2Z"/><path class="cls-2" d="M379.73,240.41a2.89,2.89,0,0,0-2.19,1.13,1.55,1.55,0,0,0-1.66-1.13,2.69,2.69,0,0,0-2.11,1.14l-.08-1h-1v6.81h1.14v-4.92a2.59,2.59,0,0,1,1.74-1c.78,0,1,.56,1,1.43v4.49h1.15v-4.94a2.51,2.51,0,0,1,1.69-1c.78,0,1,.53,1,1.39v4.53h1.14v-4.72C381.56,241.4,381.16,240.41,379.73,240.41Z"/><path class="cls-2" d="M386.25,240.41c-1.92,0-3.14,1.42-3.14,3.6,0,2.36,1.22,3.52,3.16,3.52a4,4,0,0,0,2.6-.9l-.45-.78a3.43,3.43,0,0,1-2.06.71c-1.42,0-2-.95-2-2.24H389c0-.11,0-.48,0-.6C389,241.48,388,240.41,386.25,240.41Zm-1.92,3a2,2,0,0,1,1.94-2c1.2,0,1.59.92,1.61,2Z"/><path class="cls-2" d="M393.87,240.41a3,3,0,0,0-2.25,1.16l-.08-1h-1v6.81h1.14v-4.89a2.84,2.84,0,0,1,1.94-1c.81,0,1.22.56,1.22,1.75v4.18H396v-4.46C396,241.42,395.42,240.41,393.87,240.41Z"/><path class="cls-2" d="M399.79,246.59c-.31,0-.52-.13-.52-.59v-4.5h1.11v-.93h-1.11v-1.89h-1l-.14,1.9-.87.21v.71h.86v4.71c0,.9.41,1.32,1.2,1.32a3,3,0,0,0,1.18-.22l-.13-.84A1.66,1.66,0,0,1,399.79,246.59Z"/><path class="cls-2" d="M402.47,246a.77.77,0,0,0-.86.8.85.85,0,1,0,.86-.8Z"/><path class="cls-2" d="M249.54,257.7c-1.54-.52-2.34-.79-2.34-1.83s.77-1.41,1.81-1.41a3.29,3.29,0,0,1,2.36,1.06l.67-.74a4,4,0,0,0-3-1.33c-1.73,0-3,.87-3,2.55,0,1.42.78,2.05,2.79,2.66,1.67.51,2.13.9,2.13,1.84s-.81,1.6-1.92,1.6a4.17,4.17,0,0,1-2.68-1.21l-.66.78a4.52,4.52,0,0,0,3.34,1.44c1.89,0,3.18-1,3.18-2.72C252.13,259,251.43,258.32,249.54,257.7Z"/><rect class="cls-2" x="253.79" y="256.15" width="1.14" height="6.81"/><path class="cls-2" d="M254.38,253.64a.7.7,0,0,0-.76.68.68.68,0,0,0,.76.63.65.65,0,0,0,.73-.63A.67.67,0,0,0,254.38,253.64Z"/><path class="cls-2" d="M264,256a2.89,2.89,0,0,0-2.2,1.13,1.54,1.54,0,0,0-1.66-1.13,2.66,2.66,0,0,0-2.11,1.14l-.08-1h-1V263h1.14V258a2.62,2.62,0,0,1,1.74-1c.78,0,1,.56,1,1.43V263H262V258a2.54,2.54,0,0,1,1.69-1c.78,0,1,.53,1,1.39V263h1.15v-4.73C265.8,257,265.39,256,264,256Z"/><path class="cls-2" d="M271.06,256a2.88,2.88,0,0,0-2.31,1.15l-.1-1h-1v9.4h1.14v-3.4a2.71,2.71,0,0,0,2.13,1c1.91,0,2.83-1.41,2.83-3.58S272.82,256,271.06,256Zm-.38,6.09a2.49,2.49,0,0,1-1.87-1v-3a2.86,2.86,0,0,1,2-1.12c1.09,0,1.7.9,1.7,2.56S271.83,262.08,270.68,262.08Z"/><rect class="cls-2" x="275.41" y="253.62" width="1.14" height="9.34"/><path class="cls-2" d="M279.14,253.64a.69.69,0,0,0-.75.68.67.67,0,0,0,.75.63.65.65,0,0,0,.74-.63A.67.67,0,0,0,279.14,253.64Z"/><rect class="cls-2" x="278.56" y="256.15" width="1.14" height="6.81"/><path class="cls-2" d="M283.1,255.24c0-.68.35-.9.76-.9a2.18,2.18,0,0,1,.61.09l.06-.87a3.69,3.69,0,0,0-.93-.11c-1.17,0-1.64.79-1.64,1.85v.9l-.8.15v.72h.8V263h1.14v-5.89h2.62V263h1.15v-6.81H283.1Z"/><path class="cls-2" d="M286.31,253.62a.69.69,0,1,0,0,1.38.69.69,0,1,0,0-1.38Z"/><path class="cls-2" d="M291.68,256c-1.92,0-3.14,1.41-3.14,3.59,0,2.37,1.22,3.53,3.16,3.53a4,4,0,0,0,2.6-.9l-.45-.78a3.43,3.43,0,0,1-2.06.71c-1.42,0-2-.95-2-2.24h4.65c0-.11,0-.49,0-.6C294.42,257.05,293.46,256,291.68,256Zm-1.92,3a2,2,0,0,1,1.94-2c1.2,0,1.59.92,1.61,2Z"/><path class="cls-2" d="M300.64,257a2.68,2.68,0,0,0-2.13-1c-1.75,0-2.83,1.36-2.83,3.58s.89,3.54,2.79,3.54A2.81,2.81,0,0,0,300.7,262l.08.92h1v-9.34h-1.14Zm0,4a2.5,2.5,0,0,1-1.87,1.08c-1.44,0-1.88-1.25-1.88-2.52,0-1.66.71-2.52,1.75-2.52a2.63,2.63,0,0,1,2,1.14Z"/><path class="cls-2" d="M304.33,261.56a.78.78,0,1,0,.83.77A.75.75,0,0,0,304.33,261.56Z"/></g></svg>