<svg id="logos" xmlns="http://www.w3.org/2000/svg" width="500" height="400" viewBox="0 0 500 400"><defs><style>.cls-1{fill:#2b74b7;}.cls-2{fill:#ea961c;}.cls-3{fill:#fff;}</style></defs><title>Full color with tagline</title><rect class="cls-1" width="500" height="400"/><g id="Variation"><path class="cls-2" d="M229.52,255.73a6.86,6.86,0,0,1-6.85,6.86H111.2a6.87,6.87,0,0,1-6.86-6.86V144.26a6.87,6.87,0,0,1,6.86-6.85H222.67a6.86,6.86,0,0,1,6.85,6.85v17.42h8.34V144.26a15.21,15.21,0,0,0-15.19-15.19H111.2A15.22,15.22,0,0,0,96,144.26V255.73a15.22,15.22,0,0,0,15.2,15.2H222.67a15.21,15.21,0,0,0,15.19-15.2V238.32h-8.34Z"/><polygon class="cls-3" points="160.21 182.96 160.21 169.93 118.53 169.93 118.53 230.07 160.54 230.07 160.54 217.12 133.31 217.12 133.31 205.93 157.7 205.93 157.7 193.74 133.31 193.74 133.31 182.96 160.21 182.96"/><polygon class="cls-3" points="215.33 169.93 168.15 169.93 168.15 182.96 192.95 182.96 166.89 220.8 166.89 230.07 215.25 230.07 215.25 217.12 186.85 217.12 215.33 175.7 215.33 169.93"/><path class="cls-3" d="M247.23,169.93H229.69v60.14h16.37c20.3,0,30.82-8.77,30.82-30C276.88,179.79,266.53,169.93,247.23,169.93Zm.34,53.2H237.46V177h10.11c14.95,0,21.13,8.18,21.13,23.13C268.7,215.2,262.52,223.13,247.57,223.13Z"/><path class="cls-3" d="M328.33,187.89c0-10.86-6.6-18-20.88-18H287.91v60.14h7.77V206.68h9.1a35.31,35.31,0,0,0,6.18-.5l12.28,23.89h8.51l-13.36-25.81C325.24,200.92,328.33,195.41,328.33,187.89Zm-21.71,12.28H295.68V176.7H307.2c9.19,0,13.28,3.84,13.28,11.36C320.48,196,316,200.17,306.62,200.17Z"/><polygon class="cls-3" points="397.99 169.93 389.47 169.93 372.43 218.46 355.73 169.93 346.96 169.93 340.94 230.07 348.38 230.07 353.06 183.63 369.34 230.07 375.6 230.07 391.89 183.63 396.73 230.07 404 230.07 397.99 169.93"/></g></svg>