<svg id="Layer_1" data-name="Layer 1" xmlns="http://www.w3.org/2000/svg" width="460" height="154" viewBox="0 0 460 154"><defs><style>.cls-1{fill:#8d2a90;}</style></defs><title>lockup-purple</title><g id="lockup_purple" data-name="lockup purple"><polygon class="cls-1" points="252.28 62.06 225.06 62.06 240.97 47.4 268.17 47.4 252.28 62.06"/><path class="cls-1" d="M154.87,108.85a41.71,41.71,0,0,1-6.93-1l.8-8.26.1,0a31.52,31.52,0,0,0,6,.75c7.28,0,11.46-4.62,11.46-12.68V21.41h8.79V87.66C175.12,101.13,167.74,108.85,154.87,108.85Z"/><path class="cls-1" d="M204.84,87.75c-14.34,0-23-10-23.09-19.68V68h8.61c.37,5.77,5.83,11.65,14.48,11.65,9,0,13.07-5.7,13.07-11,0-5-3.77-8.59-11.2-10.51L198.29,56C185,52.86,182.23,45.13,182.23,39.2c0-10.57,9.27-18.54,21.57-18.54s20.72,7.82,20.72,19v.09h-8.7v-.09c0-6.3-5.17-10.88-12.3-10.88-6.06,0-12.5,3.61-12.5,10.32,0,4.41,3.25,7.52,9.4,9l8.51,2.09c11.63,2.88,17.77,9.16,17.77,18.16C226.7,77.75,219,87.75,204.84,87.75Z"/><polygon class="cls-1" points="268.17 86.8 268.17 21.41 306.77 21.41 306.77 29.54 276.87 29.54 276.87 50.56 302.99 50.56 302.99 58.79 276.87 58.79 276.87 78.67 307.72 78.67 307.72 86.8 268.17 86.8"/><path class="cls-1" d="M355.8,21.41v65.3h-8.23v-7c-2.94,5.11-9.37,8-15.71,8-12.12,0-22.15-9.18-22.15-23.1s9.94-23,22.05-23c6.63,0,12.87,2.65,15.81,7.85v-28Zm-8.23,43.06a15,15,0,0,0-15.05-15.14c-8,0-14.48,6.24-14.48,15.14s6.43,15.43,14.48,15.43S347.57,73.93,347.57,64.47Z"/><path class="cls-1" d="M384.57,108.85A22.43,22.43,0,0,1,364.62,97l-.05-.09,7.09-3.73a15.16,15.16,0,0,0,12.91,7.75c10.58,0,15.72-6.66,15.72-20.35V80c-2.87,4.69-9,7.71-15.62,7.71-12.89,0-22.24-9.75-22.24-23.19s9.31-23.08,22.14-23.08c6.87,0,12.85,2.9,15.72,7.61V42.42h8.41V80C408.7,99.14,400.58,108.85,384.57,108.85Zm.76-59.43c-8.2,0-14.39,6.47-14.39,15s6.32,15.33,14.39,15.33a14.82,14.82,0,0,0,15-15.33A14.86,14.86,0,0,0,385.33,49.42Z"/><path class="cls-1" d="M438,87.75c-13.21,0-22.8-9.79-22.8-23.28,0-13.32,9.59-23,22.8-23,13,0,22.05,9.45,22.05,23,0,1.25-.1,2.49-.19,3.7l-35.95.08c1.2,7.35,6.43,11.55,14.38,11.55,5.69,0,10.48-2.49,12.79-6.67l7.4,2.84-.05.09C454.68,83.38,447,87.75,438,87.75ZM451.57,61c-1-7.23-6.12-11.55-13.62-11.55-7.74,0-12.71,4.1-14,11.55Z"/><path class="cls-1" d="M181.85,68.07h8.51c.29,5.77,5.78,11.64,14.48,11.64,8.52,0,13.16-5.3,13.16-11.08,0-6.34-5.78-9.18-11.26-10.6L198.31,56c-13.82-3.31-16-11.45-16-16.75,0-11.26,10.12-18.45,21.48-18.45S224.43,28,224.43,39.67h-8.52c0-6.53-5.39-11-12.39-11-6.53,0-12.59,4-12.59,10.41,0,2.27.76,7,9.46,9.08l8.52,2.08c11.07,2.75,17.7,8.81,17.7,18.08,0,10.13-8.23,19.31-21.77,19.31C191.12,87.66,181.94,78.19,181.85,68.07Z"/><path class="cls-1" d="M66.92,153.8l-.79-.15c-15.59-2.86-32-12.31-45-25.94C7.7,113.64,0,97.07,0,82.26V.2H133.85V82.26c0,14.81-7.71,31.38-21.14,45.45-13,13.63-29.4,23.08-45,25.94ZM8.75,9v73.3c0,25.51,29.23,56.85,58.17,62.63,29-5.78,58.17-37.12,58.17-62.63V9Z"/><path class="cls-1" d="M12.2,12.41V82.26c0,8.34,3.23,17.27,8.58,25.63l8.55-11.45h16.1l0-.41V33l-.4,0H28.44l8.71-11.8H60.63V93.58l-15.8,14.66H21c10.19,15.69,27.89,29.31,45.9,33.13,27.72-5.88,54.72-34.95,54.72-59.11V12.41Zm65,96.22H49.94L65.85,94h27.2Zm35.69-32.92L97.14,90.18H70l12.8-11.8H97.64l0-.41V58.43l-.41,0H72.46V35.67L88.17,21.2h22.36L101.64,33h-14l0,.41v15.1l.4,0h24.81Z"/></g></svg>